<?xml version="1.0" encoding="utf-8" standalone="no"?>
<!DOCTYPE svg PUBLIC "-//W3C//DTD SVG 1.1//EN"
  "http://www.w3.org/Graphics/SVG/1.1/DTD/svg11.dtd">
<svg height="859.264275pt" version="1.1" viewBox="0 0 1144.8 859.264275" width="1144.8pt" xmlns="http://www.w3.org/2000/svg" xmlns:xlink="http://www.w3.org/1999/xlink">
 <metadata>
  <rdf:RDF xmlns:cc="http://creativecommons.org/ns#" xmlns:dc="http://purl.org/dc/elements/1.1/" xmlns:rdf="http://www.w3.org/1999/02/22-rdf-syntax-ns#">
   <cc:Work>
    <dc:type rdf:resource="http://purl.org/dc/dcmitype/StillImage"/>
    <dc:date>2026-02-12T11:59:07.859190</dc:date>
    <dc:format>image/svg+xml</dc:format>
    <dc:creator>
     <cc:Agent>
      <dc:title>Matplotlib v3.4.3, https://matplotlib.org/</dc:title>
     </cc:Agent>
    </dc:creator>
   </cc:Work>
  </rdf:RDF>
 </metadata>
 <defs>
  <style type="text/css">*{stroke-linecap:butt;stroke-linejoin:round;}</style>
 </defs>
 <g id="figure_1">
  <g id="patch_1">
   <path d="M 0 859.264275 
L 1144.8 859.264275 
L 1144.8 0 
L 0 0 
z
" style="fill:#ffffff;"/>
  </g>
  <g id="axes_1">
   <g id="LineCollection_1">
    <path clip-path="url(#p8b7b178fbe)" d="M 178.910338 683.178066 
L 609.219133 705.225658 
" style="fill:none;stroke:#f7fbff;stroke-opacity:0.6;stroke-width:4;"/>
    <path clip-path="url(#p8b7b178fbe)" d="M 178.910338 683.178066 
L 454.965312 730.992426 
" style="fill:none;stroke:#f7fbff;stroke-opacity:0.6;stroke-width:4;"/>
    <path clip-path="url(#p8b7b178fbe)" d="M 178.910338 683.178066 
L 358.895224 720.861856 
" style="fill:none;stroke:#f7fbff;stroke-opacity:0.6;stroke-width:4;"/>
    <path clip-path="url(#p8b7b178fbe)" d="M 178.910338 683.178066 
L 339.930204 558.342946 
" style="fill:none;stroke:#f7fbff;stroke-opacity:0.6;stroke-width:4;"/>
    <path clip-path="url(#p8b7b178fbe)" d="M 178.910338 683.178066 
L 535.807083 766.208439 
" style="fill:none;stroke:#f7fbff;stroke-opacity:0.6;stroke-width:4;"/>
    <path clip-path="url(#p8b7b178fbe)" d="M 178.910338 683.178066 
L 591.276407 647.793018 
" style="fill:none;stroke:#f7fbff;stroke-opacity:0.6;stroke-width:4;"/>
    <path clip-path="url(#p8b7b178fbe)" d="M 178.910338 683.178066 
L 367.257176 640.182184 
" style="fill:none;stroke:#f7fbff;stroke-opacity:0.6;stroke-width:4;"/>
    <path clip-path="url(#p8b7b178fbe)" d="M 178.910338 683.178066 
L 475.606034 653.580063 
" style="fill:none;stroke:#f7fbff;stroke-opacity:0.6;stroke-width:4;"/>
    <path clip-path="url(#p8b7b178fbe)" d="M 178.910338 683.178066 
L 503.50943 568.450259 
" style="fill:none;stroke:#f7fbff;stroke-opacity:0.6;stroke-width:4;"/>
    <path clip-path="url(#p8b7b178fbe)" d="M 632.396262 531.938129 
L 609.219133 705.225658 
" style="fill:none;stroke:#c6dbef;stroke-opacity:0.6;stroke-width:5.5;"/>
    <path clip-path="url(#p8b7b178fbe)" d="M 632.396262 531.938129 
L 454.965312 730.992426 
" style="fill:none;stroke:#c6dbef;stroke-opacity:0.6;stroke-width:5.5;"/>
    <path clip-path="url(#p8b7b178fbe)" d="M 632.396262 531.938129 
L 358.895224 720.861856 
" style="fill:none;stroke:#c6dbef;stroke-opacity:0.6;stroke-width:5.5;"/>
    <path clip-path="url(#p8b7b178fbe)" d="M 632.396262 531.938129 
L 339.930204 558.342946 
" style="fill:none;stroke:#c6dbef;stroke-opacity:0.6;stroke-width:5.5;"/>
    <path clip-path="url(#p8b7b178fbe)" d="M 632.396262 531.938129 
L 535.807083 766.208439 
" style="fill:none;stroke:#c6dbef;stroke-opacity:0.6;stroke-width:5.5;"/>
    <path clip-path="url(#p8b7b178fbe)" d="M 632.396262 531.938129 
L 591.276407 647.793018 
" style="fill:none;stroke:#c6dbef;stroke-opacity:0.6;stroke-width:5.5;"/>
    <path clip-path="url(#p8b7b178fbe)" d="M 632.396262 531.938129 
L 367.257176 640.182184 
" style="fill:none;stroke:#c6dbef;stroke-opacity:0.6;stroke-width:5.5;"/>
    <path clip-path="url(#p8b7b178fbe)" d="M 632.396262 531.938129 
L 475.606034 653.580063 
" style="fill:none;stroke:#c6dbef;stroke-opacity:0.6;stroke-width:5.5;"/>
    <path clip-path="url(#p8b7b178fbe)" d="M 632.396262 531.938129 
L 503.50943 568.450259 
" style="fill:none;stroke:#c6dbef;stroke-opacity:0.6;stroke-width:5.5;"/>
    <path clip-path="url(#p8b7b178fbe)" d="M 358.895224 720.861856 
L 609.219133 705.225658 
" style="fill:none;stroke:#08306b;stroke-opacity:0.6;stroke-width:10;"/>
    <path clip-path="url(#p8b7b178fbe)" d="M 358.895224 720.861856 
L 454.965312 730.992426 
" style="fill:none;stroke:#08306b;stroke-opacity:0.6;stroke-width:10;"/>
    <path clip-path="url(#p8b7b178fbe)" d="M 358.895224 720.861856 
L 591.276407 647.793018 
" style="fill:none;stroke:#08306b;stroke-opacity:0.6;stroke-width:10;"/>
    <path clip-path="url(#p8b7b178fbe)" d="M 358.895224 720.861856 
L 367.257176 640.182184 
" style="fill:none;stroke:#08306b;stroke-opacity:0.6;stroke-width:10;"/>
    <path clip-path="url(#p8b7b178fbe)" d="M 358.895224 720.861856 
L 475.606034 653.580063 
" style="fill:none;stroke:#08306b;stroke-opacity:0.6;stroke-width:10;"/>
    <path clip-path="url(#p8b7b178fbe)" d="M 358.895224 720.861856 
L 503.50943 568.450259 
" style="fill:none;stroke:#08306b;stroke-opacity:0.6;stroke-width:10;"/>
    <path clip-path="url(#p8b7b178fbe)" d="M 358.895224 720.861856 
L 535.807083 766.208439 
" style="fill:none;stroke:#2171b5;stroke-opacity:0.6;stroke-width:8.5;"/>
    <path clip-path="url(#p8b7b178fbe)" d="M 358.895224 720.861856 
L 339.930204 558.342946 
" style="fill:none;stroke:#c6dbef;stroke-opacity:0.6;stroke-width:5.5;"/>
    <path clip-path="url(#p8b7b178fbe)" d="M 339.930204 558.342946 
L 609.219133 705.225658 
" style="fill:none;stroke:#c6dbef;stroke-opacity:0.6;stroke-width:5.5;"/>
    <path clip-path="url(#p8b7b178fbe)" d="M 339.930204 558.342946 
L 454.965312 730.992426 
" style="fill:none;stroke:#c6dbef;stroke-opacity:0.6;stroke-width:5.5;"/>
    <path clip-path="url(#p8b7b178fbe)" d="M 339.930204 558.342946 
L 535.807083 766.208439 
" style="fill:none;stroke:#c6dbef;stroke-opacity:0.6;stroke-width:5.5;"/>
    <path clip-path="url(#p8b7b178fbe)" d="M 339.930204 558.342946 
L 591.276407 647.793018 
" style="fill:none;stroke:#c6dbef;stroke-opacity:0.6;stroke-width:5.5;"/>
    <path clip-path="url(#p8b7b178fbe)" d="M 339.930204 558.342946 
L 367.257176 640.182184 
" style="fill:none;stroke:#c6dbef;stroke-opacity:0.6;stroke-width:5.5;"/>
    <path clip-path="url(#p8b7b178fbe)" d="M 339.930204 558.342946 
L 475.606034 653.580063 
" style="fill:none;stroke:#c6dbef;stroke-opacity:0.6;stroke-width:5.5;"/>
    <path clip-path="url(#p8b7b178fbe)" d="M 339.930204 558.342946 
L 503.50943 568.450259 
" style="fill:none;stroke:#c6dbef;stroke-opacity:0.6;stroke-width:5.5;"/>
    <path clip-path="url(#p8b7b178fbe)" d="M 454.965312 730.992426 
L 609.219133 705.225658 
" style="fill:none;stroke:#08306b;stroke-opacity:0.6;stroke-width:10;"/>
    <path clip-path="url(#p8b7b178fbe)" d="M 454.965312 730.992426 
L 591.276407 647.793018 
" style="fill:none;stroke:#08306b;stroke-opacity:0.6;stroke-width:10;"/>
    <path clip-path="url(#p8b7b178fbe)" d="M 454.965312 730.992426 
L 367.257176 640.182184 
" style="fill:none;stroke:#08306b;stroke-opacity:0.6;stroke-width:10;"/>
    <path clip-path="url(#p8b7b178fbe)" d="M 454.965312 730.992426 
L 475.606034 653.580063 
" style="fill:none;stroke:#08306b;stroke-opacity:0.6;stroke-width:10;"/>
    <path clip-path="url(#p8b7b178fbe)" d="M 454.965312 730.992426 
L 503.50943 568.450259 
" style="fill:none;stroke:#08306b;stroke-opacity:0.6;stroke-width:10;"/>
    <path clip-path="url(#p8b7b178fbe)" d="M 454.965312 730.992426 
L 535.807083 766.208439 
" style="fill:none;stroke:#2171b5;stroke-opacity:0.6;stroke-width:8.5;"/>
    <path clip-path="url(#p8b7b178fbe)" d="M 609.219133 705.225658 
L 591.276407 647.793018 
" style="fill:none;stroke:#08306b;stroke-opacity:0.6;stroke-width:10;"/>
    <path clip-path="url(#p8b7b178fbe)" d="M 609.219133 705.225658 
L 367.257176 640.182184 
" style="fill:none;stroke:#08306b;stroke-opacity:0.6;stroke-width:10;"/>
    <path clip-path="url(#p8b7b178fbe)" d="M 609.219133 705.225658 
L 475.606034 653.580063 
" style="fill:none;stroke:#08306b;stroke-opacity:0.6;stroke-width:10;"/>
    <path clip-path="url(#p8b7b178fbe)" d="M 609.219133 705.225658 
L 503.50943 568.450259 
" style="fill:none;stroke:#08306b;stroke-opacity:0.6;stroke-width:10;"/>
    <path clip-path="url(#p8b7b178fbe)" d="M 609.219133 705.225658 
L 535.807083 766.208439 
" style="fill:none;stroke:#2171b5;stroke-opacity:0.6;stroke-width:8.5;"/>
    <path clip-path="url(#p8b7b178fbe)" d="M 475.606034 653.580063 
L 591.276407 647.793018 
" style="fill:none;stroke:#08306b;stroke-opacity:0.6;stroke-width:10;"/>
    <path clip-path="url(#p8b7b178fbe)" d="M 475.606034 653.580063 
L 367.257176 640.182184 
" style="fill:none;stroke:#08306b;stroke-opacity:0.6;stroke-width:10;"/>
    <path clip-path="url(#p8b7b178fbe)" d="M 475.606034 653.580063 
L 503.50943 568.450259 
" style="fill:none;stroke:#08306b;stroke-opacity:0.6;stroke-width:10;"/>
    <path clip-path="url(#p8b7b178fbe)" d="M 475.606034 653.580063 
L 535.807083 766.208439 
" style="fill:none;stroke:#2171b5;stroke-opacity:0.6;stroke-width:8.5;"/>
    <path clip-path="url(#p8b7b178fbe)" d="M 503.50943 568.450259 
L 591.276407 647.793018 
" style="fill:none;stroke:#08306b;stroke-opacity:0.6;stroke-width:10;"/>
    <path clip-path="url(#p8b7b178fbe)" d="M 503.50943 568.450259 
L 367.257176 640.182184 
" style="fill:none;stroke:#08306b;stroke-opacity:0.6;stroke-width:10;"/>
    <path clip-path="url(#p8b7b178fbe)" d="M 503.50943 568.450259 
L 535.807083 766.208439 
" style="fill:none;stroke:#2171b5;stroke-opacity:0.6;stroke-width:8.5;"/>
    <path clip-path="url(#p8b7b178fbe)" d="M 367.257176 640.182184 
L 591.276407 647.793018 
" style="fill:none;stroke:#08306b;stroke-opacity:0.6;stroke-width:10;"/>
    <path clip-path="url(#p8b7b178fbe)" d="M 367.257176 640.182184 
L 535.807083 766.208439 
" style="fill:none;stroke:#2171b5;stroke-opacity:0.6;stroke-width:8.5;"/>
    <path clip-path="url(#p8b7b178fbe)" d="M 535.807083 766.208439 
L 591.276407 647.793018 
" style="fill:none;stroke:#2171b5;stroke-opacity:0.6;stroke-width:8.5;"/>
   </g>
   <g id="PathCollection_1">
    <path clip-path="url(#p8b7b178fbe)" d="M 595.844796 121.111725 
C 601.774918 121.111725 607.462956 118.755663 611.656185 114.562434 
C 615.849414 110.369205 618.205476 104.681167 618.205476 98.751045 
C 618.205476 92.820924 615.849414 87.132886 611.656185 82.939657 
C 607.462956 78.746428 601.774918 76.390366 595.844796 76.390366 
C 589.914675 76.390366 584.226637 78.746428 580.033408 82.939657 
C 575.840179 87.132886 573.484117 92.820924 573.484117 98.751045 
C 573.484117 104.681167 575.840179 110.369205 580.033408 114.562434 
C 584.226637 118.755663 589.914675 121.111725 595.844796 121.111725 
z
" style="fill:#87ceeb;stroke:#333333;stroke-width:2;"/>
    <path clip-path="url(#p8b7b178fbe)" d="M 1019.048497 321.58735 
C 1024.978618 321.58735 1030.666656 319.231288 1034.859885 315.038059 
C 1039.053114 310.84483 1041.409177 305.156792 1041.409177 299.226671 
C 1041.409177 293.296549 1039.053114 287.608511 1034.859885 283.415282 
C 1030.666656 279.222053 1024.978618 276.865991 1019.048497 276.865991 
C 1013.118375 276.865991 1007.430338 279.222053 1003.237109 283.415282 
C 999.043879 287.608511 996.687817 293.296549 996.687817 299.226671 
C 996.687817 305.156792 999.043879 310.84483 1003.237109 315.038059 
C 1007.430338 319.231288 1013.118375 321.58735 1019.048497 321.58735 
z
" style="fill:#87ceeb;stroke:#333333;stroke-width:2;"/>
    <path clip-path="url(#p8b7b178fbe)" d="M 178.910338 705.538745 
C 184.84046 705.538745 190.528497 703.182683 194.721727 698.989454 
C 198.914956 694.796225 201.271018 689.108187 201.271018 683.178066 
C 201.271018 677.247944 198.914956 671.559907 194.721727 667.366677 
C 190.528497 663.173448 184.84046 660.817386 178.910338 660.817386 
C 172.980217 660.817386 167.292179 663.173448 163.09895 667.366677 
C 158.905721 671.559907 156.549658 677.247944 156.549658 683.178066 
C 156.549658 689.108187 158.905721 694.796225 163.09895 698.989454 
C 167.292179 703.182683 172.980217 705.538745 178.910338 705.538745 
z
" style="fill:#87ceeb;stroke:#333333;stroke-width:2;"/>
    <path clip-path="url(#p8b7b178fbe)" d="M 58.581818 280.810714 
C 64.51194 280.810714 70.199977 278.454652 74.393206 274.261423 
C 78.586436 270.068193 80.942498 264.380156 80.942498 258.450034 
C 80.942498 252.519913 78.586436 246.831875 74.393206 242.638646 
C 70.199977 238.445417 64.51194 236.089354 58.581818 236.089354 
C 52.651697 236.089354 46.963659 238.445417 42.77043 242.638646 
C 38.577201 246.831875 36.221138 252.519913 36.221138 258.450034 
C 36.221138 264.380156 38.577201 270.068193 42.77043 274.261423 
C 46.963659 278.454652 52.651697 280.810714 58.581818 280.810714 
z
" style="fill:#87ceeb;stroke:#333333;stroke-width:2;"/>
    <path clip-path="url(#p8b7b178fbe)" d="M 632.396262 554.298808 
C 638.326383 554.298808 644.014421 551.942746 648.20765 547.749517 
C 652.400879 543.556288 654.756941 537.86825 654.756941 531.938129 
C 654.756941 526.008007 652.400879 520.319969 648.20765 516.12674 
C 644.014421 511.933511 638.326383 509.577449 632.396262 509.577449 
C 626.46614 509.577449 620.778102 511.933511 616.584873 516.12674 
C 612.391644 520.319969 610.035582 526.008007 610.035582 531.938129 
C 610.035582 537.86825 612.391644 543.556288 616.584873 547.749517 
C 620.778102 551.942746 626.46614 554.298808 632.396262 554.298808 
z
" style="fill:#87ceeb;stroke:#333333;stroke-width:2;"/>
    <path clip-path="url(#p8b7b178fbe)" d="M 259.132373 145.002121 
C 265.062494 145.002121 270.750532 142.646059 274.943761 138.452829 
C 279.13699 134.2596 281.493053 128.571563 281.493053 122.641441 
C 281.493053 116.711319 279.13699 111.023282 274.943761 106.830053 
C 270.750532 102.636824 265.062494 100.280761 259.132373 100.280761 
C 253.202251 100.280761 247.514214 102.636824 243.320985 106.830053 
C 239.127755 111.023282 236.771693 116.711319 236.771693 122.641441 
C 236.771693 128.571563 239.127755 134.2596 243.320985 138.452829 
C 247.514214 142.646059 253.202251 145.002121 259.132373 145.002121 
z
" style="fill:#87ceeb;stroke:#333333;stroke-width:2;"/>
    <path clip-path="url(#p8b7b178fbe)" d="M 1086.218182 537.32375 
C 1092.148303 537.32375 1097.836341 534.967687 1102.02957 530.774458 
C 1106.222799 526.581229 1108.578862 520.893191 1108.578862 514.96307 
C 1108.578862 509.032948 1106.222799 503.344911 1102.02957 499.151681 
C 1097.836341 494.958452 1092.148303 492.60239 1086.218182 492.60239 
C 1080.28806 492.60239 1074.600023 494.958452 1070.406794 499.151681 
C 1066.213564 503.344911 1063.857502 509.032948 1063.857502 514.96307 
C 1063.857502 520.893191 1066.213564 526.581229 1070.406794 530.774458 
C 1074.600023 534.967687 1080.28806 537.32375 1086.218182 537.32375 
z
" style="fill:#87ceeb;stroke:#333333;stroke-width:2;"/>
    <path clip-path="url(#p8b7b178fbe)" d="M 358.895224 743.222535 
C 364.825346 743.222535 370.513383 740.866473 374.706612 736.673244 
C 378.899841 732.480015 381.255904 726.791977 381.255904 720.861856 
C 381.255904 714.931734 378.899841 709.243697 374.706612 705.050467 
C 370.513383 700.857238 364.825346 698.501176 358.895224 698.501176 
C 352.965102 698.501176 347.277065 700.857238 343.083836 705.050467 
C 338.890606 709.243697 336.534544 714.931734 336.534544 720.861856 
C 336.534544 726.791977 338.890606 732.480015 343.083836 736.673244 
C 347.277065 740.866473 352.965102 743.222535 358.895224 743.222535 
z
" style="fill:#87ceeb;stroke:#333333;stroke-width:2;"/>
    <path clip-path="url(#p8b7b178fbe)" d="M 339.930204 580.703626 
C 345.860325 580.703626 351.548363 578.347564 355.741592 574.154335 
C 359.934821 569.961105 362.290883 564.273068 362.290883 558.342946 
C 362.290883 552.412825 359.934821 546.724787 355.741592 542.531558 
C 351.548363 538.338329 345.860325 535.982267 339.930204 535.982267 
C 334.000082 535.982267 328.312045 538.338329 324.118815 542.531558 
C 319.925586 546.724787 317.569524 552.412825 317.569524 558.342946 
C 317.569524 564.273068 319.925586 569.961105 324.118815 574.154335 
C 328.312045 578.347564 334.000082 580.703626 339.930204 580.703626 
z
" style="fill:#87ceeb;stroke:#333333;stroke-width:2;"/>
    <path clip-path="url(#p8b7b178fbe)" d="M 454.965312 753.353105 
C 460.895434 753.353105 466.583471 750.997043 470.776701 746.803814 
C 474.96993 742.610585 477.325992 736.922547 477.325992 730.992426 
C 477.325992 725.062304 474.96993 719.374266 470.776701 715.181037 
C 466.583471 710.987808 460.895434 708.631746 454.965312 708.631746 
C 449.035191 708.631746 443.347153 710.987808 439.153924 715.181037 
C 434.960695 719.374266 432.604633 725.062304 432.604633 730.992426 
C 432.604633 736.922547 434.960695 742.610585 439.153924 746.803814 
C 443.347153 750.997043 449.035191 753.353105 454.965312 753.353105 
z
" style="fill:#87ceeb;stroke:#333333;stroke-width:2;"/>
    <path clip-path="url(#p8b7b178fbe)" d="M 609.219133 727.586338 
C 615.149255 727.586338 620.837292 725.230276 625.030521 721.037047 
C 629.223751 716.843817 631.579813 711.15578 631.579813 705.225658 
C 631.579813 699.295537 629.223751 693.607499 625.030521 689.41427 
C 620.837292 685.221041 615.149255 682.864979 609.219133 682.864979 
C 603.289012 682.864979 597.600974 685.221041 593.407745 689.41427 
C 589.214516 693.607499 586.858453 699.295537 586.858453 705.225658 
C 586.858453 711.15578 589.214516 716.843817 593.407745 721.037047 
C 597.600974 725.230276 603.289012 727.586338 609.219133 727.586338 
z
" style="fill:#87ceeb;stroke:#333333;stroke-width:2;"/>
    <path clip-path="url(#p8b7b178fbe)" d="M 475.606034 675.940743 
C 481.536156 675.940743 487.224193 673.58468 491.417422 669.391451 
C 495.610652 665.198222 497.966714 659.510184 497.966714 653.580063 
C 497.966714 647.649941 495.610652 641.961904 491.417422 637.768675 
C 487.224193 633.575445 481.536156 631.219383 475.606034 631.219383 
C 469.675913 631.219383 463.987875 633.575445 459.794646 637.768675 
C 455.601417 641.961904 453.245354 647.649941 453.245354 653.580063 
C 453.245354 659.510184 455.601417 665.198222 459.794646 669.391451 
C 463.987875 673.58468 469.675913 675.940743 475.606034 675.940743 
z
" style="fill:#87ceeb;stroke:#333333;stroke-width:2;"/>
    <path clip-path="url(#p8b7b178fbe)" d="M 503.50943 590.810939 
C 509.439552 590.810939 515.127589 588.454876 519.320818 584.261647 
C 523.514048 580.068418 525.87011 574.38038 525.87011 568.450259 
C 525.87011 562.520137 523.514048 556.8321 519.320818 552.638871 
C 515.127589 548.445641 509.439552 546.089579 503.50943 546.089579 
C 497.579308 546.089579 491.891271 548.445641 487.698042 552.638871 
C 483.504813 556.8321 481.14875 562.520137 481.14875 568.450259 
C 481.14875 574.38038 483.504813 580.068418 487.698042 584.261647 
C 491.891271 588.454876 497.579308 590.810939 503.50943 590.810939 
z
" style="fill:#87ceeb;stroke:#333333;stroke-width:2;"/>
    <path clip-path="url(#p8b7b178fbe)" d="M 367.257176 662.542864 
C 373.187297 662.542864 378.875335 660.186801 383.068564 655.993572 
C 387.261793 651.800343 389.617856 646.112305 389.617856 640.182184 
C 389.617856 634.252062 387.261793 628.564025 383.068564 624.370795 
C 378.875335 620.177566 373.187297 617.821504 367.257176 617.821504 
C 361.327054 617.821504 355.639017 620.177566 351.445787 624.370795 
C 347.252558 628.564025 344.896496 634.252062 344.896496 640.182184 
C 344.896496 646.112305 347.252558 651.800343 351.445787 655.993572 
C 355.639017 660.186801 361.327054 662.542864 367.257176 662.542864 
z
" style="fill:#87ceeb;stroke:#333333;stroke-width:2;"/>
    <path clip-path="url(#p8b7b178fbe)" d="M 535.807083 791.208439 
C 542.43716 791.208439 548.796579 788.574281 553.484752 783.886109 
C 558.172925 779.197936 560.807083 772.838517 560.807083 766.208439 
C 560.807083 759.578362 558.172925 753.218942 553.484752 748.530769 
C 548.796579 743.842597 542.43716 741.208439 535.807083 741.208439 
C 529.177005 741.208439 522.817586 743.842597 518.129413 748.530769 
C 513.44124 753.218942 510.807083 759.578362 510.807083 766.208439 
C 510.807083 772.838517 513.44124 779.197936 518.129413 783.886109 
C 522.817586 788.574281 529.177005 791.208439 535.807083 791.208439 
z
" style="fill:#c0c0c0;stroke:#ff4500;stroke-width:4;"/>
    <path clip-path="url(#p8b7b178fbe)" d="M 591.276407 675.179146 
C 598.539293 675.179146 605.505688 672.29357 610.641324 667.157935 
C 615.77696 662.022299 618.662535 655.055904 618.662535 647.793018 
C 618.662535 640.530132 615.77696 633.563737 610.641324 628.428101 
C 605.505688 623.292465 598.539293 620.40689 591.276407 620.40689 
C 584.013521 620.40689 577.047126 623.292465 571.91149 628.428101 
C 566.775854 633.563737 563.890279 640.530132 563.890279 647.793018 
C 563.890279 655.055904 566.775854 662.022299 571.91149 667.157935 
C 577.047126 672.29357 584.013521 675.179146 591.276407 675.179146 
z
" style="fill:#ffd700;stroke:#ff4500;stroke-width:5;"/>
   </g>
   <g id="text_1">
    <g clip-path="url(#p8b7b178fbe)">
     <!-- Sonja -->
     <g transform="translate(577.024484 102.01542)scale(0.12 -0.12)">
      <defs>
       <path d="M 3834 4519 
L 3834 3531 
Q 3450 3703 3084 3790 
Q 2719 3878 2394 3878 
Q 1963 3878 1756 3759 
Q 1550 3641 1550 3391 
Q 1550 3203 1689 3098 
Q 1828 2994 2194 2919 
L 2706 2816 
Q 3484 2659 3812 2340 
Q 4141 2022 4141 1434 
Q 4141 663 3683 286 
Q 3225 -91 2284 -91 
Q 1841 -91 1394 -6 
Q 947 78 500 244 
L 500 1259 
Q 947 1022 1364 901 
Q 1781 781 2169 781 
Q 2563 781 2772 912 
Q 2981 1044 2981 1288 
Q 2981 1506 2839 1625 
Q 2697 1744 2272 1838 
L 1806 1941 
Q 1106 2091 782 2419 
Q 459 2747 459 3303 
Q 459 4000 909 4375 
Q 1359 4750 2203 4750 
Q 2588 4750 2994 4692 
Q 3400 4634 3834 4519 
z
" id="DejaVuSans-Bold-53" transform="scale(0.015625)"/>
       <path d="M 2203 2784 
Q 1831 2784 1636 2517 
Q 1441 2250 1441 1747 
Q 1441 1244 1636 976 
Q 1831 709 2203 709 
Q 2569 709 2762 976 
Q 2956 1244 2956 1747 
Q 2956 2250 2762 2517 
Q 2569 2784 2203 2784 
z
M 2203 3584 
Q 3106 3584 3614 3096 
Q 4122 2609 4122 1747 
Q 4122 884 3614 396 
Q 3106 -91 2203 -91 
Q 1297 -91 786 396 
Q 275 884 275 1747 
Q 275 2609 786 3096 
Q 1297 3584 2203 3584 
z
" id="DejaVuSans-Bold-6f" transform="scale(0.015625)"/>
       <path d="M 4056 2131 
L 4056 0 
L 2931 0 
L 2931 347 
L 2931 1631 
Q 2931 2084 2911 2256 
Q 2891 2428 2841 2509 
Q 2775 2619 2662 2680 
Q 2550 2741 2406 2741 
Q 2056 2741 1856 2470 
Q 1656 2200 1656 1722 
L 1656 0 
L 538 0 
L 538 3500 
L 1656 3500 
L 1656 2988 
Q 1909 3294 2193 3439 
Q 2478 3584 2822 3584 
Q 3428 3584 3742 3212 
Q 4056 2841 4056 2131 
z
" id="DejaVuSans-Bold-6e" transform="scale(0.015625)"/>
       <path d="M 538 3500 
L 1656 3500 
L 1656 63 
Q 1656 -641 1318 -1011 
Q 981 -1381 341 -1381 
L -213 -1381 
L -213 -647 
L -19 -647 
Q 300 -647 419 -503 
Q 538 -359 538 63 
L 538 3500 
z
M 538 4863 
L 1656 4863 
L 1656 3950 
L 538 3950 
L 538 4863 
z
" id="DejaVuSans-Bold-6a" transform="scale(0.015625)"/>
       <path d="M 2106 1575 
Q 1756 1575 1579 1456 
Q 1403 1338 1403 1106 
Q 1403 894 1545 773 
Q 1688 653 1941 653 
Q 2256 653 2472 879 
Q 2688 1106 2688 1447 
L 2688 1575 
L 2106 1575 
z
M 3816 1997 
L 3816 0 
L 2688 0 
L 2688 519 
Q 2463 200 2181 54 
Q 1900 -91 1497 -91 
Q 953 -91 614 226 
Q 275 544 275 1050 
Q 275 1666 698 1953 
Q 1122 2241 2028 2241 
L 2688 2241 
L 2688 2328 
Q 2688 2594 2478 2717 
Q 2269 2841 1825 2841 
Q 1466 2841 1156 2769 
Q 847 2697 581 2553 
L 581 3406 
Q 941 3494 1303 3539 
Q 1666 3584 2028 3584 
Q 2975 3584 3395 3211 
Q 3816 2838 3816 1997 
z
" id="DejaVuSans-Bold-61" transform="scale(0.015625)"/>
      </defs>
      <use xlink:href="#DejaVuSans-Bold-53"/>
      <use x="72.021484" xlink:href="#DejaVuSans-Bold-6f"/>
      <use x="140.722656" xlink:href="#DejaVuSans-Bold-6e"/>
      <use x="211.914062" xlink:href="#DejaVuSans-Bold-6a"/>
      <use x="246.191406" xlink:href="#DejaVuSans-Bold-61"/>
     </g>
    </g>
   </g>
   <g id="text_2">
    <g clip-path="url(#p8b7b178fbe)">
     <!-- B.B. -->
     <g transform="translate(1005.344122 302.537921)scale(0.12 -0.12)">
      <defs>
       <path d="M 2456 2859 
Q 2741 2859 2887 2984 
Q 3034 3109 3034 3353 
Q 3034 3594 2887 3720 
Q 2741 3847 2456 3847 
L 1791 3847 
L 1791 2859 
L 2456 2859 
z
M 2497 819 
Q 2859 819 3042 972 
Q 3225 1125 3225 1434 
Q 3225 1738 3044 1889 
Q 2863 2041 2497 2041 
L 1791 2041 
L 1791 819 
L 2497 819 
z
M 3616 2497 
Q 4003 2384 4215 2081 
Q 4428 1778 4428 1338 
Q 4428 663 3972 331 
Q 3516 0 2584 0 
L 588 0 
L 588 4666 
L 2394 4666 
Q 3366 4666 3802 4372 
Q 4238 4078 4238 3431 
Q 4238 3091 4078 2852 
Q 3919 2613 3616 2497 
z
" id="DejaVuSans-Bold-42" transform="scale(0.015625)"/>
       <path d="M 653 1209 
L 1778 1209 
L 1778 0 
L 653 0 
L 653 1209 
z
" id="DejaVuSans-Bold-2e" transform="scale(0.015625)"/>
      </defs>
      <use xlink:href="#DejaVuSans-Bold-42"/>
      <use x="76.220703" xlink:href="#DejaVuSans-Bold-2e"/>
      <use x="114.208984" xlink:href="#DejaVuSans-Bold-42"/>
      <use x="190.429688" xlink:href="#DejaVuSans-Bold-2e"/>
     </g>
    </g>
   </g>
   <g id="text_3">
    <g clip-path="url(#p8b7b178fbe)">
     <!-- Stacey -->
     <g transform="translate(156.134713 686.395566)scale(0.12 -0.12)">
      <defs>
       <path d="M 1759 4494 
L 1759 3500 
L 2913 3500 
L 2913 2700 
L 1759 2700 
L 1759 1216 
Q 1759 972 1856 886 
Q 1953 800 2241 800 
L 2816 800 
L 2816 0 
L 1856 0 
Q 1194 0 917 276 
Q 641 553 641 1216 
L 641 2700 
L 84 2700 
L 84 3500 
L 641 3500 
L 641 4494 
L 1759 4494 
z
" id="DejaVuSans-Bold-74" transform="scale(0.015625)"/>
       <path d="M 3366 3391 
L 3366 2478 
Q 3138 2634 2908 2709 
Q 2678 2784 2431 2784 
Q 1963 2784 1702 2511 
Q 1441 2238 1441 1747 
Q 1441 1256 1702 982 
Q 1963 709 2431 709 
Q 2694 709 2930 787 
Q 3166 866 3366 1019 
L 3366 103 
Q 3103 6 2833 -42 
Q 2563 -91 2291 -91 
Q 1344 -91 809 395 
Q 275 881 275 1747 
Q 275 2613 809 3098 
Q 1344 3584 2291 3584 
Q 2566 3584 2833 3536 
Q 3100 3488 3366 3391 
z
" id="DejaVuSans-Bold-63" transform="scale(0.015625)"/>
       <path d="M 4031 1759 
L 4031 1441 
L 1416 1441 
Q 1456 1047 1700 850 
Q 1944 653 2381 653 
Q 2734 653 3104 758 
Q 3475 863 3866 1075 
L 3866 213 
Q 3469 63 3072 -14 
Q 2675 -91 2278 -91 
Q 1328 -91 801 392 
Q 275 875 275 1747 
Q 275 2603 792 3093 
Q 1309 3584 2216 3584 
Q 3041 3584 3536 3087 
Q 4031 2591 4031 1759 
z
M 2881 2131 
Q 2881 2450 2695 2645 
Q 2509 2841 2209 2841 
Q 1884 2841 1681 2658 
Q 1478 2475 1428 2131 
L 2881 2131 
z
" id="DejaVuSans-Bold-65" transform="scale(0.015625)"/>
       <path d="M 78 3500 
L 1197 3500 
L 2138 1125 
L 2938 3500 
L 4056 3500 
L 2584 -331 
Q 2363 -916 2067 -1148 
Q 1772 -1381 1288 -1381 
L 641 -1381 
L 641 -647 
L 991 -647 
Q 1275 -647 1404 -556 
Q 1534 -466 1606 -231 
L 1638 -134 
L 78 3500 
z
" id="DejaVuSans-Bold-79" transform="scale(0.015625)"/>
      </defs>
      <use xlink:href="#DejaVuSans-Bold-53"/>
      <use x="72.021484" xlink:href="#DejaVuSans-Bold-74"/>
      <use x="119.824219" xlink:href="#DejaVuSans-Bold-61"/>
      <use x="187.304688" xlink:href="#DejaVuSans-Bold-63"/>
      <use x="246.582031" xlink:href="#DejaVuSans-Bold-65"/>
      <use x="314.404297" xlink:href="#DejaVuSans-Bold-79"/>
     </g>
    </g>
   </g>
   <g id="text_4">
    <g clip-path="url(#p8b7b178fbe)">
     <!-- Ramona -->
     <g transform="translate(31.218068 261.761284)scale(0.12 -0.12)">
      <defs>
       <path d="M 2297 2597 
Q 2675 2597 2839 2737 
Q 3003 2878 3003 3200 
Q 3003 3519 2839 3656 
Q 2675 3794 2297 3794 
L 1791 3794 
L 1791 2597 
L 2297 2597 
z
M 1791 1766 
L 1791 0 
L 588 0 
L 588 4666 
L 2425 4666 
Q 3347 4666 3776 4356 
Q 4206 4047 4206 3378 
Q 4206 2916 3982 2619 
Q 3759 2322 3309 2181 
Q 3556 2125 3751 1926 
Q 3947 1728 4147 1325 
L 4800 0 
L 3519 0 
L 2950 1159 
Q 2778 1509 2601 1637 
Q 2425 1766 2131 1766 
L 1791 1766 
z
" id="DejaVuSans-Bold-52" transform="scale(0.015625)"/>
       <path d="M 3781 2919 
Q 3994 3244 4286 3414 
Q 4578 3584 4928 3584 
Q 5531 3584 5847 3212 
Q 6163 2841 6163 2131 
L 6163 0 
L 5038 0 
L 5038 1825 
Q 5041 1866 5042 1909 
Q 5044 1953 5044 2034 
Q 5044 2406 4934 2573 
Q 4825 2741 4581 2741 
Q 4263 2741 4089 2478 
Q 3916 2216 3909 1719 
L 3909 0 
L 2784 0 
L 2784 1825 
Q 2784 2406 2684 2573 
Q 2584 2741 2328 2741 
Q 2006 2741 1831 2477 
Q 1656 2213 1656 1722 
L 1656 0 
L 531 0 
L 531 3500 
L 1656 3500 
L 1656 2988 
Q 1863 3284 2130 3434 
Q 2397 3584 2719 3584 
Q 3081 3584 3359 3409 
Q 3638 3234 3781 2919 
z
" id="DejaVuSans-Bold-6d" transform="scale(0.015625)"/>
      </defs>
      <use xlink:href="#DejaVuSans-Bold-52"/>
      <use x="77.001953" xlink:href="#DejaVuSans-Bold-61"/>
      <use x="144.482422" xlink:href="#DejaVuSans-Bold-6d"/>
      <use x="248.681641" xlink:href="#DejaVuSans-Bold-6f"/>
      <use x="317.382812" xlink:href="#DejaVuSans-Bold-6e"/>
      <use x="388.574219" xlink:href="#DejaVuSans-Bold-61"/>
     </g>
    </g>
   </g>
   <g id="text_5">
    <g clip-path="url(#p8b7b178fbe)">
     <!-- Dirk -->
     <g transform="translate(618.409699 535.249379)scale(0.12 -0.12)">
      <defs>
       <path d="M 1791 3756 
L 1791 909 
L 2222 909 
Q 2959 909 3348 1275 
Q 3738 1641 3738 2338 
Q 3738 3031 3350 3393 
Q 2963 3756 2222 3756 
L 1791 3756 
z
M 588 4666 
L 1856 4666 
Q 2919 4666 3439 4514 
Q 3959 4363 4331 4000 
Q 4659 3684 4818 3271 
Q 4978 2859 4978 2338 
Q 4978 1809 4818 1395 
Q 4659 981 4331 666 
Q 3956 303 3431 151 
Q 2906 0 1856 0 
L 588 0 
L 588 4666 
z
" id="DejaVuSans-Bold-44" transform="scale(0.015625)"/>
       <path d="M 538 3500 
L 1656 3500 
L 1656 0 
L 538 0 
L 538 3500 
z
M 538 4863 
L 1656 4863 
L 1656 3950 
L 538 3950 
L 538 4863 
z
" id="DejaVuSans-Bold-69" transform="scale(0.015625)"/>
       <path d="M 3138 2547 
Q 2991 2616 2845 2648 
Q 2700 2681 2553 2681 
Q 2122 2681 1889 2404 
Q 1656 2128 1656 1613 
L 1656 0 
L 538 0 
L 538 3500 
L 1656 3500 
L 1656 2925 
Q 1872 3269 2151 3426 
Q 2431 3584 2822 3584 
Q 2878 3584 2943 3579 
Q 3009 3575 3134 3559 
L 3138 2547 
z
" id="DejaVuSans-Bold-72" transform="scale(0.015625)"/>
       <path d="M 538 4863 
L 1656 4863 
L 1656 2216 
L 2944 3500 
L 4244 3500 
L 2534 1894 
L 4378 0 
L 3022 0 
L 1656 1459 
L 1656 0 
L 538 0 
L 538 4863 
z
" id="DejaVuSans-Bold-6b" transform="scale(0.015625)"/>
      </defs>
      <use xlink:href="#DejaVuSans-Bold-44"/>
      <use x="83.007812" xlink:href="#DejaVuSans-Bold-69"/>
      <use x="117.285156" xlink:href="#DejaVuSans-Bold-72"/>
      <use x="166.601562" xlink:href="#DejaVuSans-Bold-6b"/>
     </g>
    </g>
   </g>
   <g id="text_6">
    <g clip-path="url(#p8b7b178fbe)">
     <!-- Joel -->
     <g transform="translate(246.651435 125.952691)scale(0.12 -0.12)">
      <defs>
       <path d="M 588 4666 
L 1791 4666 
L 1791 453 
Q 1791 -419 1317 -850 
Q 844 -1281 -116 -1281 
L -359 -1281 
L -359 -372 
L -172 -372 
Q 203 -372 395 -162 
Q 588 47 588 453 
L 588 4666 
z
" id="DejaVuSans-Bold-4a" transform="scale(0.015625)"/>
       <path d="M 538 4863 
L 1656 4863 
L 1656 0 
L 538 0 
L 538 4863 
z
" id="DejaVuSans-Bold-6c" transform="scale(0.015625)"/>
      </defs>
      <use xlink:href="#DejaVuSans-Bold-4a"/>
      <use x="37.207031" xlink:href="#DejaVuSans-Bold-6f"/>
      <use x="105.908203" xlink:href="#DejaVuSans-Bold-65"/>
      <use x="173.730469" xlink:href="#DejaVuSans-Bold-6c"/>
     </g>
    </g>
   </g>
   <g id="text_7">
    <g clip-path="url(#p8b7b178fbe)">
     <!-- Gretchen -->
     <g transform="translate(1055.228182 518.27432)scale(0.12 -0.12)">
      <defs>
       <path d="M 4781 347 
Q 4331 128 3847 18 
Q 3363 -91 2847 -91 
Q 1681 -91 1000 561 
Q 319 1213 319 2328 
Q 319 3456 1012 4103 
Q 1706 4750 2913 4750 
Q 3378 4750 3804 4662 
Q 4231 4575 4609 4403 
L 4609 3438 
Q 4219 3659 3833 3768 
Q 3447 3878 3059 3878 
Q 2341 3878 1952 3476 
Q 1563 3075 1563 2328 
Q 1563 1588 1938 1184 
Q 2313 781 3003 781 
Q 3191 781 3352 804 
Q 3513 828 3641 878 
L 3641 1784 
L 2906 1784 
L 2906 2591 
L 4781 2591 
L 4781 347 
z
" id="DejaVuSans-Bold-47" transform="scale(0.015625)"/>
       <path d="M 4056 2131 
L 4056 0 
L 2931 0 
L 2931 347 
L 2931 1625 
Q 2931 2084 2911 2256 
Q 2891 2428 2841 2509 
Q 2775 2619 2662 2680 
Q 2550 2741 2406 2741 
Q 2056 2741 1856 2470 
Q 1656 2200 1656 1722 
L 1656 0 
L 538 0 
L 538 4863 
L 1656 4863 
L 1656 2988 
Q 1909 3294 2193 3439 
Q 2478 3584 2822 3584 
Q 3428 3584 3742 3212 
Q 4056 2841 4056 2131 
z
" id="DejaVuSans-Bold-68" transform="scale(0.015625)"/>
      </defs>
      <use xlink:href="#DejaVuSans-Bold-47"/>
      <use x="82.080078" xlink:href="#DejaVuSans-Bold-72"/>
      <use x="131.396484" xlink:href="#DejaVuSans-Bold-65"/>
      <use x="199.21875" xlink:href="#DejaVuSans-Bold-74"/>
      <use x="247.021484" xlink:href="#DejaVuSans-Bold-63"/>
      <use x="306.298828" xlink:href="#DejaVuSans-Bold-68"/>
      <use x="377.490234" xlink:href="#DejaVuSans-Bold-65"/>
      <use x="445.3125" xlink:href="#DejaVuSans-Bold-6e"/>
     </g>
    </g>
   </g>
   <g id="text_8">
    <g clip-path="url(#p8b7b178fbe)">
     <!-- Greg -->
     <g transform="translate(342.647411 724.079356)scale(0.12 -0.12)">
      <defs>
       <path d="M 2919 594 
Q 2688 288 2409 144 
Q 2131 0 1766 0 
Q 1125 0 706 504 
Q 288 1009 288 1791 
Q 288 2575 706 3076 
Q 1125 3578 1766 3578 
Q 2131 3578 2409 3434 
Q 2688 3291 2919 2981 
L 2919 3500 
L 4044 3500 
L 4044 353 
Q 4044 -491 3511 -936 
Q 2978 -1381 1966 -1381 
Q 1638 -1381 1331 -1331 
Q 1025 -1281 716 -1178 
L 716 -306 
Q 1009 -475 1290 -558 
Q 1572 -641 1856 -641 
Q 2406 -641 2662 -400 
Q 2919 -159 2919 353 
L 2919 594 
z
M 2181 2772 
Q 1834 2772 1640 2515 
Q 1447 2259 1447 1791 
Q 1447 1309 1634 1061 
Q 1822 813 2181 813 
Q 2531 813 2725 1069 
Q 2919 1325 2919 1791 
Q 2919 2259 2725 2515 
Q 2531 2772 2181 2772 
z
" id="DejaVuSans-Bold-67" transform="scale(0.015625)"/>
      </defs>
      <use xlink:href="#DejaVuSans-Bold-47"/>
      <use x="82.080078" xlink:href="#DejaVuSans-Bold-72"/>
      <use x="131.396484" xlink:href="#DejaVuSans-Bold-65"/>
      <use x="199.21875" xlink:href="#DejaVuSans-Bold-67"/>
     </g>
    </g>
   </g>
   <g id="text_9">
    <g clip-path="url(#p8b7b178fbe)">
     <!-- Jenna -->
     <g transform="translate(321.036766 561.654196)scale(0.12 -0.12)">
      <use xlink:href="#DejaVuSans-Bold-4a"/>
      <use x="37.207031" xlink:href="#DejaVuSans-Bold-65"/>
      <use x="105.029297" xlink:href="#DejaVuSans-Bold-6e"/>
      <use x="176.220703" xlink:href="#DejaVuSans-Bold-6e"/>
      <use x="247.412109" xlink:href="#DejaVuSans-Bold-61"/>
     </g>
    </g>
   </g>
   <g id="text_10">
    <g clip-path="url(#p8b7b178fbe)">
     <!-- Gervase -->
     <g transform="translate(427.41125 734.303676)scale(0.12 -0.12)">
      <defs>
       <path d="M 97 3500 
L 1216 3500 
L 2088 1081 
L 2956 3500 
L 4078 3500 
L 2700 0 
L 1472 0 
L 97 3500 
z
" id="DejaVuSans-Bold-76" transform="scale(0.015625)"/>
       <path d="M 3272 3391 
L 3272 2541 
Q 2913 2691 2578 2766 
Q 2244 2841 1947 2841 
Q 1628 2841 1473 2761 
Q 1319 2681 1319 2516 
Q 1319 2381 1436 2309 
Q 1553 2238 1856 2203 
L 2053 2175 
Q 2913 2066 3209 1816 
Q 3506 1566 3506 1031 
Q 3506 472 3093 190 
Q 2681 -91 1863 -91 
Q 1516 -91 1145 -36 
Q 775 19 384 128 
L 384 978 
Q 719 816 1070 734 
Q 1422 653 1784 653 
Q 2113 653 2278 743 
Q 2444 834 2444 1013 
Q 2444 1163 2330 1236 
Q 2216 1309 1875 1350 
L 1678 1375 
Q 931 1469 631 1722 
Q 331 1975 331 2491 
Q 331 3047 712 3315 
Q 1094 3584 1881 3584 
Q 2191 3584 2531 3537 
Q 2872 3491 3272 3391 
z
" id="DejaVuSans-Bold-73" transform="scale(0.015625)"/>
      </defs>
      <use xlink:href="#DejaVuSans-Bold-47"/>
      <use x="82.080078" xlink:href="#DejaVuSans-Bold-65"/>
      <use x="149.902344" xlink:href="#DejaVuSans-Bold-72"/>
      <use x="199.21875" xlink:href="#DejaVuSans-Bold-76"/>
      <use x="264.404297" xlink:href="#DejaVuSans-Bold-61"/>
      <use x="331.884766" xlink:href="#DejaVuSans-Bold-73"/>
      <use x="391.40625" xlink:href="#DejaVuSans-Bold-65"/>
     </g>
    </g>
   </g>
   <g id="text_11">
    <g clip-path="url(#p8b7b178fbe)">
     <!-- Colleen -->
     <g transform="translate(584.169133 708.536908)scale(0.12 -0.12)">
      <defs>
       <path d="M 4288 256 
Q 3956 84 3597 -3 
Q 3238 -91 2847 -91 
Q 1681 -91 1000 561 
Q 319 1213 319 2328 
Q 319 3447 1000 4098 
Q 1681 4750 2847 4750 
Q 3238 4750 3597 4662 
Q 3956 4575 4288 4403 
L 4288 3438 
Q 3953 3666 3628 3772 
Q 3303 3878 2944 3878 
Q 2300 3878 1931 3465 
Q 1563 3053 1563 2328 
Q 1563 1606 1931 1193 
Q 2300 781 2944 781 
Q 3303 781 3628 887 
Q 3953 994 4288 1222 
L 4288 256 
z
" id="DejaVuSans-Bold-43" transform="scale(0.015625)"/>
      </defs>
      <use xlink:href="#DejaVuSans-Bold-43"/>
      <use x="73.388672" xlink:href="#DejaVuSans-Bold-6f"/>
      <use x="142.089844" xlink:href="#DejaVuSans-Bold-6c"/>
      <use x="176.367188" xlink:href="#DejaVuSans-Bold-6c"/>
      <use x="210.644531" xlink:href="#DejaVuSans-Bold-65"/>
      <use x="278.466797" xlink:href="#DejaVuSans-Bold-65"/>
      <use x="346.289062" xlink:href="#DejaVuSans-Bold-6e"/>
     </g>
    </g>
   </g>
   <g id="text_12">
    <g clip-path="url(#p8b7b178fbe)">
     <!-- Sean -->
     <g transform="translate(458.895097 656.891313)scale(0.12 -0.12)">
      <use xlink:href="#DejaVuSans-Bold-53"/>
      <use x="72.021484" xlink:href="#DejaVuSans-Bold-65"/>
      <use x="139.84375" xlink:href="#DejaVuSans-Bold-61"/>
      <use x="207.324219" xlink:href="#DejaVuSans-Bold-6e"/>
     </g>
    </g>
   </g>
   <g id="text_13">
    <g clip-path="url(#p8b7b178fbe)">
     <!-- Sue -->
     <g transform="translate(490.847555 571.761509)scale(0.12 -0.12)">
      <defs>
       <path d="M 500 1363 
L 500 3500 
L 1625 3500 
L 1625 3150 
Q 1625 2866 1622 2436 
Q 1619 2006 1619 1863 
Q 1619 1441 1641 1255 
Q 1663 1069 1716 984 
Q 1784 875 1895 815 
Q 2006 756 2150 756 
Q 2500 756 2700 1025 
Q 2900 1294 2900 1772 
L 2900 3500 
L 4019 3500 
L 4019 0 
L 2900 0 
L 2900 506 
Q 2647 200 2364 54 
Q 2081 -91 1741 -91 
Q 1134 -91 817 281 
Q 500 653 500 1363 
z
" id="DejaVuSans-Bold-75" transform="scale(0.015625)"/>
      </defs>
      <use xlink:href="#DejaVuSans-Bold-53"/>
      <use x="72.021484" xlink:href="#DejaVuSans-Bold-75"/>
      <use x="143.212891" xlink:href="#DejaVuSans-Bold-65"/>
     </g>
    </g>
   </g>
   <g id="text_14">
    <g clip-path="url(#p8b7b178fbe)">
     <!-- Rudy -->
     <g transform="translate(350.159988 643.446559)scale(0.12 -0.12)">
      <defs>
       <path d="M 2919 2988 
L 2919 4863 
L 4044 4863 
L 4044 0 
L 2919 0 
L 2919 506 
Q 2688 197 2409 53 
Q 2131 -91 1766 -91 
Q 1119 -91 703 423 
Q 288 938 288 1747 
Q 288 2556 703 3070 
Q 1119 3584 1766 3584 
Q 2128 3584 2408 3439 
Q 2688 3294 2919 2988 
z
M 2181 722 
Q 2541 722 2730 984 
Q 2919 1247 2919 1747 
Q 2919 2247 2730 2509 
Q 2541 2772 2181 2772 
Q 1825 2772 1636 2509 
Q 1447 2247 1447 1747 
Q 1447 1247 1636 984 
Q 1825 722 2181 722 
z
" id="DejaVuSans-Bold-64" transform="scale(0.015625)"/>
      </defs>
      <use xlink:href="#DejaVuSans-Bold-52"/>
      <use x="77.001953" xlink:href="#DejaVuSans-Bold-75"/>
      <use x="148.193359" xlink:href="#DejaVuSans-Bold-64"/>
      <use x="219.775391" xlink:href="#DejaVuSans-Bold-79"/>
     </g>
    </g>
   </g>
   <g id="text_15">
    <g clip-path="url(#p8b7b178fbe)">
     <!-- Kelly -->
     <g transform="translate(519.168333 769.472814)scale(0.12 -0.12)">
      <defs>
       <path d="M 588 4666 
L 1791 4666 
L 1791 2963 
L 3525 4666 
L 4922 4666 
L 2675 2456 
L 5153 0 
L 3647 0 
L 1791 1838 
L 1791 0 
L 588 0 
L 588 4666 
z
" id="DejaVuSans-Bold-4b" transform="scale(0.015625)"/>
      </defs>
      <use xlink:href="#DejaVuSans-Bold-4b"/>
      <use x="75.740234" xlink:href="#DejaVuSans-Bold-65"/>
      <use x="143.5625" xlink:href="#DejaVuSans-Bold-6c"/>
      <use x="177.839844" xlink:href="#DejaVuSans-Bold-6c"/>
      <use x="212.117188" xlink:href="#DejaVuSans-Bold-79"/>
     </g>
    </g>
   </g>
   <g id="text_16">
    <g clip-path="url(#p8b7b178fbe)">
     <!-- Richard -->
     <g transform="translate(565.468907 651.104268)scale(0.12 -0.12)">
      <use xlink:href="#DejaVuSans-Bold-52"/>
      <use x="77.001953" xlink:href="#DejaVuSans-Bold-69"/>
      <use x="111.279297" xlink:href="#DejaVuSans-Bold-63"/>
      <use x="170.556641" xlink:href="#DejaVuSans-Bold-68"/>
      <use x="241.748047" xlink:href="#DejaVuSans-Bold-61"/>
      <use x="309.228516" xlink:href="#DejaVuSans-Bold-72"/>
      <use x="358.544922" xlink:href="#DejaVuSans-Bold-64"/>
     </g>
    </g>
   </g>
   <g id="text_17">
    <g id="patch_2">
     <path d="M 402.135 855.664275 
L 742.665 855.664275 
Q 746.265 855.664275 746.265 852.064275 
L 746.265 840.064275 
Q 746.265 836.464275 742.665 836.464275 
L 402.135 836.464275 
Q 398.535 836.464275 398.535 840.064275 
L 398.535 852.064275 
Q 398.535 855.664275 402.135 855.664275 
z
" style="fill:#f5deb3;opacity:0.5;stroke:#000000;stroke-linejoin:miter;"/>
    </g>
    <!-- Contestants: 16 | Tribal Councils: 6 | Strong Alliances: 54 -->
    <g transform="translate(402.135 849.2349)scale(0.12 -0.12)">
     <defs>
      <path d="M 4122 4306 
L 4122 3641 
Q 3803 3938 3442 4084 
Q 3081 4231 2675 4231 
Q 1875 4231 1450 3742 
Q 1025 3253 1025 2328 
Q 1025 1406 1450 917 
Q 1875 428 2675 428 
Q 3081 428 3442 575 
Q 3803 722 4122 1019 
L 4122 359 
Q 3791 134 3420 21 
Q 3050 -91 2638 -91 
Q 1578 -91 968 557 
Q 359 1206 359 2328 
Q 359 3453 968 4101 
Q 1578 4750 2638 4750 
Q 3056 4750 3426 4639 
Q 3797 4528 4122 4306 
z
" id="DejaVuSans-43" transform="scale(0.015625)"/>
      <path d="M 1959 3097 
Q 1497 3097 1228 2736 
Q 959 2375 959 1747 
Q 959 1119 1226 758 
Q 1494 397 1959 397 
Q 2419 397 2687 759 
Q 2956 1122 2956 1747 
Q 2956 2369 2687 2733 
Q 2419 3097 1959 3097 
z
M 1959 3584 
Q 2709 3584 3137 3096 
Q 3566 2609 3566 1747 
Q 3566 888 3137 398 
Q 2709 -91 1959 -91 
Q 1206 -91 779 398 
Q 353 888 353 1747 
Q 353 2609 779 3096 
Q 1206 3584 1959 3584 
z
" id="DejaVuSans-6f" transform="scale(0.015625)"/>
      <path d="M 3513 2113 
L 3513 0 
L 2938 0 
L 2938 2094 
Q 2938 2591 2744 2837 
Q 2550 3084 2163 3084 
Q 1697 3084 1428 2787 
Q 1159 2491 1159 1978 
L 1159 0 
L 581 0 
L 581 3500 
L 1159 3500 
L 1159 2956 
Q 1366 3272 1645 3428 
Q 1925 3584 2291 3584 
Q 2894 3584 3203 3211 
Q 3513 2838 3513 2113 
z
" id="DejaVuSans-6e" transform="scale(0.015625)"/>
      <path d="M 1172 4494 
L 1172 3500 
L 2356 3500 
L 2356 3053 
L 1172 3053 
L 1172 1153 
Q 1172 725 1289 603 
Q 1406 481 1766 481 
L 2356 481 
L 2356 0 
L 1766 0 
Q 1100 0 847 248 
Q 594 497 594 1153 
L 594 3053 
L 172 3053 
L 172 3500 
L 594 3500 
L 594 4494 
L 1172 4494 
z
" id="DejaVuSans-74" transform="scale(0.015625)"/>
      <path d="M 3597 1894 
L 3597 1613 
L 953 1613 
Q 991 1019 1311 708 
Q 1631 397 2203 397 
Q 2534 397 2845 478 
Q 3156 559 3463 722 
L 3463 178 
Q 3153 47 2828 -22 
Q 2503 -91 2169 -91 
Q 1331 -91 842 396 
Q 353 884 353 1716 
Q 353 2575 817 3079 
Q 1281 3584 2069 3584 
Q 2775 3584 3186 3129 
Q 3597 2675 3597 1894 
z
M 3022 2063 
Q 3016 2534 2758 2815 
Q 2500 3097 2075 3097 
Q 1594 3097 1305 2825 
Q 1016 2553 972 2059 
L 3022 2063 
z
" id="DejaVuSans-65" transform="scale(0.015625)"/>
      <path d="M 2834 3397 
L 2834 2853 
Q 2591 2978 2328 3040 
Q 2066 3103 1784 3103 
Q 1356 3103 1142 2972 
Q 928 2841 928 2578 
Q 928 2378 1081 2264 
Q 1234 2150 1697 2047 
L 1894 2003 
Q 2506 1872 2764 1633 
Q 3022 1394 3022 966 
Q 3022 478 2636 193 
Q 2250 -91 1575 -91 
Q 1294 -91 989 -36 
Q 684 19 347 128 
L 347 722 
Q 666 556 975 473 
Q 1284 391 1588 391 
Q 1994 391 2212 530 
Q 2431 669 2431 922 
Q 2431 1156 2273 1281 
Q 2116 1406 1581 1522 
L 1381 1569 
Q 847 1681 609 1914 
Q 372 2147 372 2553 
Q 372 3047 722 3315 
Q 1072 3584 1716 3584 
Q 2034 3584 2315 3537 
Q 2597 3491 2834 3397 
z
" id="DejaVuSans-73" transform="scale(0.015625)"/>
      <path d="M 2194 1759 
Q 1497 1759 1228 1600 
Q 959 1441 959 1056 
Q 959 750 1161 570 
Q 1363 391 1709 391 
Q 2188 391 2477 730 
Q 2766 1069 2766 1631 
L 2766 1759 
L 2194 1759 
z
M 3341 1997 
L 3341 0 
L 2766 0 
L 2766 531 
Q 2569 213 2275 61 
Q 1981 -91 1556 -91 
Q 1019 -91 701 211 
Q 384 513 384 1019 
Q 384 1609 779 1909 
Q 1175 2209 1959 2209 
L 2766 2209 
L 2766 2266 
Q 2766 2663 2505 2880 
Q 2244 3097 1772 3097 
Q 1472 3097 1187 3025 
Q 903 2953 641 2809 
L 641 3341 
Q 956 3463 1253 3523 
Q 1550 3584 1831 3584 
Q 2591 3584 2966 3190 
Q 3341 2797 3341 1997 
z
" id="DejaVuSans-61" transform="scale(0.015625)"/>
      <path d="M 750 794 
L 1409 794 
L 1409 0 
L 750 0 
L 750 794 
z
M 750 3309 
L 1409 3309 
L 1409 2516 
L 750 2516 
L 750 3309 
z
" id="DejaVuSans-3a" transform="scale(0.015625)"/>
      <path id="DejaVuSans-20" transform="scale(0.015625)"/>
      <path d="M 794 531 
L 1825 531 
L 1825 4091 
L 703 3866 
L 703 4441 
L 1819 4666 
L 2450 4666 
L 2450 531 
L 3481 531 
L 3481 0 
L 794 0 
L 794 531 
z
" id="DejaVuSans-31" transform="scale(0.015625)"/>
      <path d="M 2113 2584 
Q 1688 2584 1439 2293 
Q 1191 2003 1191 1497 
Q 1191 994 1439 701 
Q 1688 409 2113 409 
Q 2538 409 2786 701 
Q 3034 994 3034 1497 
Q 3034 2003 2786 2293 
Q 2538 2584 2113 2584 
z
M 3366 4563 
L 3366 3988 
Q 3128 4100 2886 4159 
Q 2644 4219 2406 4219 
Q 1781 4219 1451 3797 
Q 1122 3375 1075 2522 
Q 1259 2794 1537 2939 
Q 1816 3084 2150 3084 
Q 2853 3084 3261 2657 
Q 3669 2231 3669 1497 
Q 3669 778 3244 343 
Q 2819 -91 2113 -91 
Q 1303 -91 875 529 
Q 447 1150 447 2328 
Q 447 3434 972 4092 
Q 1497 4750 2381 4750 
Q 2619 4750 2861 4703 
Q 3103 4656 3366 4563 
z
" id="DejaVuSans-36" transform="scale(0.015625)"/>
      <path d="M 1344 4891 
L 1344 -1509 
L 813 -1509 
L 813 4891 
L 1344 4891 
z
" id="DejaVuSans-7c" transform="scale(0.015625)"/>
      <path d="M -19 4666 
L 3928 4666 
L 3928 4134 
L 2272 4134 
L 2272 0 
L 1638 0 
L 1638 4134 
L -19 4134 
L -19 4666 
z
" id="DejaVuSans-54" transform="scale(0.015625)"/>
      <path d="M 2631 2963 
Q 2534 3019 2420 3045 
Q 2306 3072 2169 3072 
Q 1681 3072 1420 2755 
Q 1159 2438 1159 1844 
L 1159 0 
L 581 0 
L 581 3500 
L 1159 3500 
L 1159 2956 
Q 1341 3275 1631 3429 
Q 1922 3584 2338 3584 
Q 2397 3584 2469 3576 
Q 2541 3569 2628 3553 
L 2631 2963 
z
" id="DejaVuSans-72" transform="scale(0.015625)"/>
      <path d="M 603 3500 
L 1178 3500 
L 1178 0 
L 603 0 
L 603 3500 
z
M 603 4863 
L 1178 4863 
L 1178 4134 
L 603 4134 
L 603 4863 
z
" id="DejaVuSans-69" transform="scale(0.015625)"/>
      <path d="M 3116 1747 
Q 3116 2381 2855 2742 
Q 2594 3103 2138 3103 
Q 1681 3103 1420 2742 
Q 1159 2381 1159 1747 
Q 1159 1113 1420 752 
Q 1681 391 2138 391 
Q 2594 391 2855 752 
Q 3116 1113 3116 1747 
z
M 1159 2969 
Q 1341 3281 1617 3432 
Q 1894 3584 2278 3584 
Q 2916 3584 3314 3078 
Q 3713 2572 3713 1747 
Q 3713 922 3314 415 
Q 2916 -91 2278 -91 
Q 1894 -91 1617 61 
Q 1341 213 1159 525 
L 1159 0 
L 581 0 
L 581 4863 
L 1159 4863 
L 1159 2969 
z
" id="DejaVuSans-62" transform="scale(0.015625)"/>
      <path d="M 603 4863 
L 1178 4863 
L 1178 0 
L 603 0 
L 603 4863 
z
" id="DejaVuSans-6c" transform="scale(0.015625)"/>
      <path d="M 544 1381 
L 544 3500 
L 1119 3500 
L 1119 1403 
Q 1119 906 1312 657 
Q 1506 409 1894 409 
Q 2359 409 2629 706 
Q 2900 1003 2900 1516 
L 2900 3500 
L 3475 3500 
L 3475 0 
L 2900 0 
L 2900 538 
Q 2691 219 2414 64 
Q 2138 -91 1772 -91 
Q 1169 -91 856 284 
Q 544 659 544 1381 
z
M 1991 3584 
L 1991 3584 
z
" id="DejaVuSans-75" transform="scale(0.015625)"/>
      <path d="M 3122 3366 
L 3122 2828 
Q 2878 2963 2633 3030 
Q 2388 3097 2138 3097 
Q 1578 3097 1268 2742 
Q 959 2388 959 1747 
Q 959 1106 1268 751 
Q 1578 397 2138 397 
Q 2388 397 2633 464 
Q 2878 531 3122 666 
L 3122 134 
Q 2881 22 2623 -34 
Q 2366 -91 2075 -91 
Q 1284 -91 818 406 
Q 353 903 353 1747 
Q 353 2603 823 3093 
Q 1294 3584 2113 3584 
Q 2378 3584 2631 3529 
Q 2884 3475 3122 3366 
z
" id="DejaVuSans-63" transform="scale(0.015625)"/>
      <path d="M 3425 4513 
L 3425 3897 
Q 3066 4069 2747 4153 
Q 2428 4238 2131 4238 
Q 1616 4238 1336 4038 
Q 1056 3838 1056 3469 
Q 1056 3159 1242 3001 
Q 1428 2844 1947 2747 
L 2328 2669 
Q 3034 2534 3370 2195 
Q 3706 1856 3706 1288 
Q 3706 609 3251 259 
Q 2797 -91 1919 -91 
Q 1588 -91 1214 -16 
Q 841 59 441 206 
L 441 856 
Q 825 641 1194 531 
Q 1563 422 1919 422 
Q 2459 422 2753 634 
Q 3047 847 3047 1241 
Q 3047 1584 2836 1778 
Q 2625 1972 2144 2069 
L 1759 2144 
Q 1053 2284 737 2584 
Q 422 2884 422 3419 
Q 422 4038 858 4394 
Q 1294 4750 2059 4750 
Q 2388 4750 2728 4690 
Q 3069 4631 3425 4513 
z
" id="DejaVuSans-53" transform="scale(0.015625)"/>
      <path d="M 2906 1791 
Q 2906 2416 2648 2759 
Q 2391 3103 1925 3103 
Q 1463 3103 1205 2759 
Q 947 2416 947 1791 
Q 947 1169 1205 825 
Q 1463 481 1925 481 
Q 2391 481 2648 825 
Q 2906 1169 2906 1791 
z
M 3481 434 
Q 3481 -459 3084 -895 
Q 2688 -1331 1869 -1331 
Q 1566 -1331 1297 -1286 
Q 1028 -1241 775 -1147 
L 775 -588 
Q 1028 -725 1275 -790 
Q 1522 -856 1778 -856 
Q 2344 -856 2625 -561 
Q 2906 -266 2906 331 
L 2906 616 
Q 2728 306 2450 153 
Q 2172 0 1784 0 
Q 1141 0 747 490 
Q 353 981 353 1791 
Q 353 2603 747 3093 
Q 1141 3584 1784 3584 
Q 2172 3584 2450 3431 
Q 2728 3278 2906 2969 
L 2906 3500 
L 3481 3500 
L 3481 434 
z
" id="DejaVuSans-67" transform="scale(0.015625)"/>
      <path d="M 2188 4044 
L 1331 1722 
L 3047 1722 
L 2188 4044 
z
M 1831 4666 
L 2547 4666 
L 4325 0 
L 3669 0 
L 3244 1197 
L 1141 1197 
L 716 0 
L 50 0 
L 1831 4666 
z
" id="DejaVuSans-41" transform="scale(0.015625)"/>
      <path d="M 691 4666 
L 3169 4666 
L 3169 4134 
L 1269 4134 
L 1269 2991 
Q 1406 3038 1543 3061 
Q 1681 3084 1819 3084 
Q 2600 3084 3056 2656 
Q 3513 2228 3513 1497 
Q 3513 744 3044 326 
Q 2575 -91 1722 -91 
Q 1428 -91 1123 -41 
Q 819 9 494 109 
L 494 744 
Q 775 591 1075 516 
Q 1375 441 1709 441 
Q 2250 441 2565 725 
Q 2881 1009 2881 1497 
Q 2881 1984 2565 2268 
Q 2250 2553 1709 2553 
Q 1456 2553 1204 2497 
Q 953 2441 691 2322 
L 691 4666 
z
" id="DejaVuSans-35" transform="scale(0.015625)"/>
      <path d="M 2419 4116 
L 825 1625 
L 2419 1625 
L 2419 4116 
z
M 2253 4666 
L 3047 4666 
L 3047 1625 
L 3713 1625 
L 3713 1100 
L 3047 1100 
L 3047 0 
L 2419 0 
L 2419 1100 
L 313 1100 
L 313 1709 
L 2253 4666 
z
" id="DejaVuSans-34" transform="scale(0.015625)"/>
     </defs>
     <use xlink:href="#DejaVuSans-43"/>
     <use x="69.824219" xlink:href="#DejaVuSans-6f"/>
     <use x="131.005859" xlink:href="#DejaVuSans-6e"/>
     <use x="194.384766" xlink:href="#DejaVuSans-74"/>
     <use x="233.59375" xlink:href="#DejaVuSans-65"/>
     <use x="295.117188" xlink:href="#DejaVuSans-73"/>
     <use x="347.216797" xlink:href="#DejaVuSans-74"/>
     <use x="386.425781" xlink:href="#DejaVuSans-61"/>
     <use x="447.705078" xlink:href="#DejaVuSans-6e"/>
     <use x="511.083984" xlink:href="#DejaVuSans-74"/>
     <use x="550.292969" xlink:href="#DejaVuSans-73"/>
     <use x="602.392578" xlink:href="#DejaVuSans-3a"/>
     <use x="636.083984" xlink:href="#DejaVuSans-20"/>
     <use x="667.871094" xlink:href="#DejaVuSans-31"/>
     <use x="731.494141" xlink:href="#DejaVuSans-36"/>
     <use x="795.117188" xlink:href="#DejaVuSans-20"/>
     <use x="826.904297" xlink:href="#DejaVuSans-7c"/>
     <use x="860.595703" xlink:href="#DejaVuSans-20"/>
     <use x="892.382812" xlink:href="#DejaVuSans-54"/>
     <use x="938.716797" xlink:href="#DejaVuSans-72"/>
     <use x="979.830078" xlink:href="#DejaVuSans-69"/>
     <use x="1007.613281" xlink:href="#DejaVuSans-62"/>
     <use x="1071.089844" xlink:href="#DejaVuSans-61"/>
     <use x="1132.369141" xlink:href="#DejaVuSans-6c"/>
     <use x="1160.152344" xlink:href="#DejaVuSans-20"/>
     <use x="1191.939453" xlink:href="#DejaVuSans-43"/>
     <use x="1261.763672" xlink:href="#DejaVuSans-6f"/>
     <use x="1322.945312" xlink:href="#DejaVuSans-75"/>
     <use x="1386.324219" xlink:href="#DejaVuSans-6e"/>
     <use x="1449.703125" xlink:href="#DejaVuSans-63"/>
     <use x="1504.683594" xlink:href="#DejaVuSans-69"/>
     <use x="1532.466797" xlink:href="#DejaVuSans-6c"/>
     <use x="1560.25" xlink:href="#DejaVuSans-73"/>
     <use x="1612.349609" xlink:href="#DejaVuSans-3a"/>
     <use x="1646.041016" xlink:href="#DejaVuSans-20"/>
     <use x="1677.828125" xlink:href="#DejaVuSans-36"/>
     <use x="1741.451172" xlink:href="#DejaVuSans-20"/>
     <use x="1773.238281" xlink:href="#DejaVuSans-7c"/>
     <use x="1806.929688" xlink:href="#DejaVuSans-20"/>
     <use x="1838.716797" xlink:href="#DejaVuSans-53"/>
     <use x="1902.193359" xlink:href="#DejaVuSans-74"/>
     <use x="1941.402344" xlink:href="#DejaVuSans-72"/>
     <use x="1980.265625" xlink:href="#DejaVuSans-6f"/>
     <use x="2041.447266" xlink:href="#DejaVuSans-6e"/>
     <use x="2104.826172" xlink:href="#DejaVuSans-67"/>
     <use x="2168.302734" xlink:href="#DejaVuSans-20"/>
     <use x="2200.089844" xlink:href="#DejaVuSans-41"/>
     <use x="2268.498047" xlink:href="#DejaVuSans-6c"/>
     <use x="2296.28125" xlink:href="#DejaVuSans-6c"/>
     <use x="2324.064453" xlink:href="#DejaVuSans-69"/>
     <use x="2351.847656" xlink:href="#DejaVuSans-61"/>
     <use x="2413.126953" xlink:href="#DejaVuSans-6e"/>
     <use x="2476.505859" xlink:href="#DejaVuSans-63"/>
     <use x="2531.486328" xlink:href="#DejaVuSans-65"/>
     <use x="2593.009766" xlink:href="#DejaVuSans-73"/>
     <use x="2645.109375" xlink:href="#DejaVuSans-3a"/>
     <use x="2678.800781" xlink:href="#DejaVuSans-20"/>
     <use x="2710.587891" xlink:href="#DejaVuSans-35"/>
     <use x="2774.210938" xlink:href="#DejaVuSans-34"/>
    </g>
   </g>
   <g id="text_18">
    <!-- Survivor Season 1: Borneo - PRE-MERGE ONLY -->
    <g transform="translate(313.565625 22.396875)scale(0.2 -0.2)">
     <defs>
      <path id="DejaVuSans-Bold-20" transform="scale(0.015625)"/>
      <path d="M 750 831 
L 1813 831 
L 1813 3847 
L 722 3622 
L 722 4441 
L 1806 4666 
L 2950 4666 
L 2950 831 
L 4013 831 
L 4013 0 
L 750 0 
L 750 831 
z
" id="DejaVuSans-Bold-31" transform="scale(0.015625)"/>
      <path d="M 716 3500 
L 1844 3500 
L 1844 2291 
L 716 2291 
L 716 3500 
z
M 716 1209 
L 1844 1209 
L 1844 0 
L 716 0 
L 716 1209 
z
" id="DejaVuSans-Bold-3a" transform="scale(0.015625)"/>
      <path d="M 347 2297 
L 2309 2297 
L 2309 1388 
L 347 1388 
L 347 2297 
z
" id="DejaVuSans-Bold-2d" transform="scale(0.015625)"/>
      <path d="M 588 4666 
L 2584 4666 
Q 3475 4666 3951 4270 
Q 4428 3875 4428 3144 
Q 4428 2409 3951 2014 
Q 3475 1619 2584 1619 
L 1791 1619 
L 1791 0 
L 588 0 
L 588 4666 
z
M 1791 3794 
L 1791 2491 
L 2456 2491 
Q 2806 2491 2997 2661 
Q 3188 2831 3188 3144 
Q 3188 3456 2997 3625 
Q 2806 3794 2456 3794 
L 1791 3794 
z
" id="DejaVuSans-Bold-50" transform="scale(0.015625)"/>
      <path d="M 588 4666 
L 3834 4666 
L 3834 3756 
L 1791 3756 
L 1791 2888 
L 3713 2888 
L 3713 1978 
L 1791 1978 
L 1791 909 
L 3903 909 
L 3903 0 
L 588 0 
L 588 4666 
z
" id="DejaVuSans-Bold-45" transform="scale(0.015625)"/>
      <path d="M 588 4666 
L 2119 4666 
L 3181 2169 
L 4250 4666 
L 5778 4666 
L 5778 0 
L 4641 0 
L 4641 3413 
L 3566 897 
L 2803 897 
L 1728 3413 
L 1728 0 
L 588 0 
L 588 4666 
z
" id="DejaVuSans-Bold-4d" transform="scale(0.015625)"/>
      <path d="M 2719 3878 
Q 2169 3878 1866 3472 
Q 1563 3066 1563 2328 
Q 1563 1594 1866 1187 
Q 2169 781 2719 781 
Q 3272 781 3575 1187 
Q 3878 1594 3878 2328 
Q 3878 3066 3575 3472 
Q 3272 3878 2719 3878 
z
M 2719 4750 
Q 3844 4750 4481 4106 
Q 5119 3463 5119 2328 
Q 5119 1197 4481 553 
Q 3844 -91 2719 -91 
Q 1597 -91 958 553 
Q 319 1197 319 2328 
Q 319 3463 958 4106 
Q 1597 4750 2719 4750 
z
" id="DejaVuSans-Bold-4f" transform="scale(0.015625)"/>
      <path d="M 588 4666 
L 1931 4666 
L 3628 1466 
L 3628 4666 
L 4769 4666 
L 4769 0 
L 3425 0 
L 1728 3200 
L 1728 0 
L 588 0 
L 588 4666 
z
" id="DejaVuSans-Bold-4e" transform="scale(0.015625)"/>
      <path d="M 588 4666 
L 1791 4666 
L 1791 909 
L 3903 909 
L 3903 0 
L 588 0 
L 588 4666 
z
" id="DejaVuSans-Bold-4c" transform="scale(0.015625)"/>
      <path d="M -63 4666 
L 1253 4666 
L 2316 3003 
L 3378 4666 
L 4697 4666 
L 2919 1966 
L 2919 0 
L 1716 0 
L 1716 1966 
L -63 4666 
z
" id="DejaVuSans-Bold-59" transform="scale(0.015625)"/>
     </defs>
     <use xlink:href="#DejaVuSans-Bold-53"/>
     <use x="72.021484" xlink:href="#DejaVuSans-Bold-75"/>
     <use x="143.212891" xlink:href="#DejaVuSans-Bold-72"/>
     <use x="192.529297" xlink:href="#DejaVuSans-Bold-76"/>
     <use x="257.714844" xlink:href="#DejaVuSans-Bold-69"/>
     <use x="291.992188" xlink:href="#DejaVuSans-Bold-76"/>
     <use x="357.177734" xlink:href="#DejaVuSans-Bold-6f"/>
     <use x="425.878906" xlink:href="#DejaVuSans-Bold-72"/>
     <use x="475.195312" xlink:href="#DejaVuSans-Bold-20"/>
     <use x="510.009766" xlink:href="#DejaVuSans-Bold-53"/>
     <use x="582.03125" xlink:href="#DejaVuSans-Bold-65"/>
     <use x="649.853516" xlink:href="#DejaVuSans-Bold-61"/>
     <use x="717.333984" xlink:href="#DejaVuSans-Bold-73"/>
     <use x="776.855469" xlink:href="#DejaVuSans-Bold-6f"/>
     <use x="845.556641" xlink:href="#DejaVuSans-Bold-6e"/>
     <use x="916.748047" xlink:href="#DejaVuSans-Bold-20"/>
     <use x="951.5625" xlink:href="#DejaVuSans-Bold-31"/>
     <use x="1021.142578" xlink:href="#DejaVuSans-Bold-3a"/>
     <use x="1061.132812" xlink:href="#DejaVuSans-Bold-20"/>
     <use x="1095.947266" xlink:href="#DejaVuSans-Bold-42"/>
     <use x="1172.167969" xlink:href="#DejaVuSans-Bold-6f"/>
     <use x="1240.869141" xlink:href="#DejaVuSans-Bold-72"/>
     <use x="1290.185547" xlink:href="#DejaVuSans-Bold-6e"/>
     <use x="1361.376953" xlink:href="#DejaVuSans-Bold-65"/>
     <use x="1429.199219" xlink:href="#DejaVuSans-Bold-6f"/>
     <use x="1497.900391" xlink:href="#DejaVuSans-Bold-20"/>
     <use x="1532.714844" xlink:href="#DejaVuSans-Bold-2d"/>
     <use x="1574.21875" xlink:href="#DejaVuSans-Bold-20"/>
     <use x="1609.033203" xlink:href="#DejaVuSans-Bold-50"/>
     <use x="1682.324219" xlink:href="#DejaVuSans-Bold-52"/>
     <use x="1759.326172" xlink:href="#DejaVuSans-Bold-45"/>
     <use x="1827.636719" xlink:href="#DejaVuSans-Bold-2d"/>
     <use x="1869.140625" xlink:href="#DejaVuSans-Bold-4d"/>
     <use x="1968.652344" xlink:href="#DejaVuSans-Bold-45"/>
     <use x="2036.962891" xlink:href="#DejaVuSans-Bold-52"/>
     <use x="2113.964844" xlink:href="#DejaVuSans-Bold-47"/>
     <use x="2196.044922" xlink:href="#DejaVuSans-Bold-45"/>
     <use x="2264.355469" xlink:href="#DejaVuSans-Bold-20"/>
     <use x="2299.169922" xlink:href="#DejaVuSans-Bold-4f"/>
     <use x="2384.179688" xlink:href="#DejaVuSans-Bold-4e"/>
     <use x="2467.871094" xlink:href="#DejaVuSans-Bold-4c"/>
     <use x="2515.966797" xlink:href="#DejaVuSans-Bold-59"/>
    </g>
    <!-- Alliance Network (2+ votes together) -->
    <g transform="translate(361.667188 44.7925)scale(0.2 -0.2)">
     <defs>
      <path d="M 3419 850 
L 1538 850 
L 1241 0 
L 31 0 
L 1759 4666 
L 3194 4666 
L 4922 0 
L 3713 0 
L 3419 850 
z
M 1838 1716 
L 3116 1716 
L 2478 3572 
L 1838 1716 
z
" id="DejaVuSans-Bold-41" transform="scale(0.015625)"/>
      <path d="M 225 3500 
L 1313 3500 
L 1900 1088 
L 2491 3500 
L 3425 3500 
L 4013 1113 
L 4603 3500 
L 5691 3500 
L 4769 0 
L 3547 0 
L 2956 2406 
L 2369 0 
L 1147 0 
L 225 3500 
z
" id="DejaVuSans-Bold-77" transform="scale(0.015625)"/>
      <path d="M 2413 -844 
L 1484 -844 
Q 1006 -72 778 623 
Q 550 1319 550 2003 
Q 550 2688 779 3389 
Q 1009 4091 1484 4856 
L 2413 4856 
Q 2013 4116 1813 3408 
Q 1613 2700 1613 2009 
Q 1613 1319 1811 609 
Q 2009 -100 2413 -844 
z
" id="DejaVuSans-Bold-28" transform="scale(0.015625)"/>
      <path d="M 1844 884 
L 3897 884 
L 3897 0 
L 506 0 
L 506 884 
L 2209 2388 
Q 2438 2594 2547 2791 
Q 2656 2988 2656 3200 
Q 2656 3528 2436 3728 
Q 2216 3928 1850 3928 
Q 1569 3928 1234 3808 
Q 900 3688 519 3450 
L 519 4475 
Q 925 4609 1322 4679 
Q 1719 4750 2100 4750 
Q 2938 4750 3402 4381 
Q 3866 4013 3866 3353 
Q 3866 2972 3669 2642 
Q 3472 2313 2841 1759 
L 1844 884 
z
" id="DejaVuSans-Bold-32" transform="scale(0.015625)"/>
      <path d="M 3053 4013 
L 3053 2375 
L 4684 2375 
L 4684 1638 
L 3053 1638 
L 3053 0 
L 2309 0 
L 2309 1638 
L 678 1638 
L 678 2375 
L 2309 2375 
L 2309 4013 
L 3053 4013 
z
" id="DejaVuSans-Bold-2b" transform="scale(0.015625)"/>
      <path d="M 513 -844 
Q 913 -100 1113 609 
Q 1313 1319 1313 2009 
Q 1313 2700 1113 3408 
Q 913 4116 513 4856 
L 1441 4856 
Q 1916 4091 2145 3389 
Q 2375 2688 2375 2003 
Q 2375 1319 2147 623 
Q 1919 -72 1441 -844 
L 513 -844 
z
" id="DejaVuSans-Bold-29" transform="scale(0.015625)"/>
     </defs>
     <use xlink:href="#DejaVuSans-Bold-41"/>
     <use x="77.392578" xlink:href="#DejaVuSans-Bold-6c"/>
     <use x="111.669922" xlink:href="#DejaVuSans-Bold-6c"/>
     <use x="145.947266" xlink:href="#DejaVuSans-Bold-69"/>
     <use x="180.224609" xlink:href="#DejaVuSans-Bold-61"/>
     <use x="247.705078" xlink:href="#DejaVuSans-Bold-6e"/>
     <use x="318.896484" xlink:href="#DejaVuSans-Bold-63"/>
     <use x="378.173828" xlink:href="#DejaVuSans-Bold-65"/>
     <use x="445.996094" xlink:href="#DejaVuSans-Bold-20"/>
     <use x="480.810547" xlink:href="#DejaVuSans-Bold-4e"/>
     <use x="564.501953" xlink:href="#DejaVuSans-Bold-65"/>
     <use x="632.324219" xlink:href="#DejaVuSans-Bold-74"/>
     <use x="680.126953" xlink:href="#DejaVuSans-Bold-77"/>
     <use x="772.509766" xlink:href="#DejaVuSans-Bold-6f"/>
     <use x="841.210938" xlink:href="#DejaVuSans-Bold-72"/>
     <use x="890.527344" xlink:href="#DejaVuSans-Bold-6b"/>
     <use x="957.03125" xlink:href="#DejaVuSans-Bold-20"/>
     <use x="991.845703" xlink:href="#DejaVuSans-Bold-28"/>
     <use x="1037.548828" xlink:href="#DejaVuSans-Bold-32"/>
     <use x="1107.128906" xlink:href="#DejaVuSans-Bold-2b"/>
     <use x="1190.917969" xlink:href="#DejaVuSans-Bold-20"/>
     <use x="1225.732422" xlink:href="#DejaVuSans-Bold-76"/>
     <use x="1290.917969" xlink:href="#DejaVuSans-Bold-6f"/>
     <use x="1359.619141" xlink:href="#DejaVuSans-Bold-74"/>
     <use x="1407.421875" xlink:href="#DejaVuSans-Bold-65"/>
     <use x="1475.244141" xlink:href="#DejaVuSans-Bold-73"/>
     <use x="1534.765625" xlink:href="#DejaVuSans-Bold-20"/>
     <use x="1569.580078" xlink:href="#DejaVuSans-Bold-74"/>
     <use x="1617.382812" xlink:href="#DejaVuSans-Bold-6f"/>
     <use x="1686.083984" xlink:href="#DejaVuSans-Bold-67"/>
     <use x="1757.666016" xlink:href="#DejaVuSans-Bold-65"/>
     <use x="1825.488281" xlink:href="#DejaVuSans-Bold-74"/>
     <use x="1873.291016" xlink:href="#DejaVuSans-Bold-68"/>
     <use x="1944.482422" xlink:href="#DejaVuSans-Bold-65"/>
     <use x="2012.304688" xlink:href="#DejaVuSans-Bold-72"/>
     <use x="2061.621094" xlink:href="#DejaVuSans-Bold-29"/>
    </g>
   </g>
   <g id="legend_1">
    <g id="patch_3">
     <path d="M 14.9 170.468125 
L 218.943125 170.468125 
Q 221.143125 170.468125 221.143125 168.268125 
L 221.143125 72.4925 
Q 221.143125 70.2925 218.943125 70.2925 
L 14.9 70.2925 
Q 12.7 70.2925 12.7 72.4925 
L 12.7 168.268125 
Q 12.7 170.468125 14.9 170.468125 
z
" style="fill:#ffffff;opacity:0.9;stroke:#cccccc;stroke-linejoin:miter;"/>
    </g>
    <g id="line2d_1">
     <path d="M 17.1 79.200781 
L 39.1 79.200781 
" style="fill:none;stroke:#ffffff;stroke-linecap:square;stroke-width:1.5;"/>
    </g>
    <g id="line2d_2">
     <defs>
      <path d="M 0 7.5 
C 1.989023 7.5 3.896849 6.709753 5.303301 5.303301 
C 6.709753 3.896849 7.5 1.989023 7.5 0 
C 7.5 -1.989023 6.709753 -3.896849 5.303301 -5.303301 
C 3.896849 -6.709753 1.989023 -7.5 0 -7.5 
C -1.989023 -7.5 -3.896849 -6.709753 -5.303301 -5.303301 
C -6.709753 -3.896849 -7.5 -1.989023 -7.5 0 
C -7.5 1.989023 -6.709753 3.896849 -5.303301 5.303301 
C -3.896849 6.709753 -1.989023 7.5 0 7.5 
z
" id="m3545fa6234" style="stroke:#ff4500;stroke-width:3;"/>
     </defs>
     <g>
      <use style="fill:#ffd700;stroke:#ff4500;stroke-width:3;" x="28.1" xlink:href="#m3545fa6234" y="79.200781"/>
     </g>
    </g>
    <g id="text_19">
     <!-- Winner: Richard -->
     <g transform="translate(47.9 83.050781)scale(0.11 -0.11)">
      <defs>
       <path d="M 213 4666 
L 850 4666 
L 1831 722 
L 2809 4666 
L 3519 4666 
L 4500 722 
L 5478 4666 
L 6119 4666 
L 4947 0 
L 4153 0 
L 3169 4050 
L 2175 0 
L 1381 0 
L 213 4666 
z
" id="DejaVuSans-57" transform="scale(0.015625)"/>
       <path d="M 2841 2188 
Q 3044 2119 3236 1894 
Q 3428 1669 3622 1275 
L 4263 0 
L 3584 0 
L 2988 1197 
Q 2756 1666 2539 1819 
Q 2322 1972 1947 1972 
L 1259 1972 
L 1259 0 
L 628 0 
L 628 4666 
L 2053 4666 
Q 2853 4666 3247 4331 
Q 3641 3997 3641 3322 
Q 3641 2881 3436 2590 
Q 3231 2300 2841 2188 
z
M 1259 4147 
L 1259 2491 
L 2053 2491 
Q 2509 2491 2742 2702 
Q 2975 2913 2975 3322 
Q 2975 3731 2742 3939 
Q 2509 4147 2053 4147 
L 1259 4147 
z
" id="DejaVuSans-52" transform="scale(0.015625)"/>
       <path d="M 3513 2113 
L 3513 0 
L 2938 0 
L 2938 2094 
Q 2938 2591 2744 2837 
Q 2550 3084 2163 3084 
Q 1697 3084 1428 2787 
Q 1159 2491 1159 1978 
L 1159 0 
L 581 0 
L 581 4863 
L 1159 4863 
L 1159 2956 
Q 1366 3272 1645 3428 
Q 1925 3584 2291 3584 
Q 2894 3584 3203 3211 
Q 3513 2838 3513 2113 
z
" id="DejaVuSans-68" transform="scale(0.015625)"/>
       <path d="M 2906 2969 
L 2906 4863 
L 3481 4863 
L 3481 0 
L 2906 0 
L 2906 525 
Q 2725 213 2448 61 
Q 2172 -91 1784 -91 
Q 1150 -91 751 415 
Q 353 922 353 1747 
Q 353 2572 751 3078 
Q 1150 3584 1784 3584 
Q 2172 3584 2448 3432 
Q 2725 3281 2906 2969 
z
M 947 1747 
Q 947 1113 1208 752 
Q 1469 391 1925 391 
Q 2381 391 2643 752 
Q 2906 1113 2906 1747 
Q 2906 2381 2643 2742 
Q 2381 3103 1925 3103 
Q 1469 3103 1208 2742 
Q 947 2381 947 1747 
z
" id="DejaVuSans-64" transform="scale(0.015625)"/>
      </defs>
      <use xlink:href="#DejaVuSans-57"/>
      <use x="96.626953" xlink:href="#DejaVuSans-69"/>
      <use x="124.410156" xlink:href="#DejaVuSans-6e"/>
      <use x="187.789062" xlink:href="#DejaVuSans-6e"/>
      <use x="251.167969" xlink:href="#DejaVuSans-65"/>
      <use x="312.691406" xlink:href="#DejaVuSans-72"/>
      <use x="352.054688" xlink:href="#DejaVuSans-3a"/>
      <use x="385.746094" xlink:href="#DejaVuSans-20"/>
      <use x="417.533203" xlink:href="#DejaVuSans-52"/>
      <use x="487.015625" xlink:href="#DejaVuSans-69"/>
      <use x="514.798828" xlink:href="#DejaVuSans-63"/>
      <use x="569.779297" xlink:href="#DejaVuSans-68"/>
      <use x="633.158203" xlink:href="#DejaVuSans-61"/>
      <use x="694.4375" xlink:href="#DejaVuSans-72"/>
      <use x="733.800781" xlink:href="#DejaVuSans-64"/>
     </g>
    </g>
    <g id="line2d_3">
     <path d="M 17.1 95.346719 
L 39.1 95.346719 
" style="fill:none;stroke:#ffffff;stroke-linecap:square;stroke-width:1.5;"/>
    </g>
    <g id="line2d_4">
     <defs>
      <path d="M 0 7.5 
C 1.989023 7.5 3.896849 6.709753 5.303301 5.303301 
C 6.709753 3.896849 7.5 1.989023 7.5 0 
C 7.5 -1.989023 6.709753 -3.896849 5.303301 -5.303301 
C 3.896849 -6.709753 1.989023 -7.5 0 -7.5 
C -1.989023 -7.5 -3.896849 -6.709753 -5.303301 -5.303301 
C -6.709753 -3.896849 -7.5 -1.989023 -7.5 0 
C -7.5 1.989023 -6.709753 3.896849 -5.303301 5.303301 
C -3.896849 6.709753 -1.989023 7.5 0 7.5 
z
" id="m160354db15" style="stroke:#ff4500;stroke-width:2;"/>
     </defs>
     <g>
      <use style="fill:#c0c0c0;stroke:#ff4500;stroke-width:2;" x="28.1" xlink:href="#m160354db15" y="95.346719"/>
     </g>
    </g>
    <g id="text_20">
     <!-- Finalist -->
     <g transform="translate(47.9 99.196719)scale(0.11 -0.11)">
      <defs>
       <path d="M 628 4666 
L 3309 4666 
L 3309 4134 
L 1259 4134 
L 1259 2759 
L 3109 2759 
L 3109 2228 
L 1259 2228 
L 1259 0 
L 628 0 
L 628 4666 
z
" id="DejaVuSans-46" transform="scale(0.015625)"/>
      </defs>
      <use xlink:href="#DejaVuSans-46"/>
      <use x="50.269531" xlink:href="#DejaVuSans-69"/>
      <use x="78.052734" xlink:href="#DejaVuSans-6e"/>
      <use x="141.431641" xlink:href="#DejaVuSans-61"/>
      <use x="202.710938" xlink:href="#DejaVuSans-6c"/>
      <use x="230.494141" xlink:href="#DejaVuSans-69"/>
      <use x="258.277344" xlink:href="#DejaVuSans-73"/>
      <use x="310.376953" xlink:href="#DejaVuSans-74"/>
     </g>
    </g>
    <g id="line2d_5">
     <path d="M 17.1 111.492656 
L 39.1 111.492656 
" style="fill:none;stroke:#ffffff;stroke-linecap:square;stroke-width:1.5;"/>
    </g>
    <g id="line2d_6">
     <defs>
      <path d="M 0 7.5 
C 1.989023 7.5 3.896849 6.709753 5.303301 5.303301 
C 6.709753 3.896849 7.5 1.989023 7.5 0 
C 7.5 -1.989023 6.709753 -3.896849 5.303301 -5.303301 
C 3.896849 -6.709753 1.989023 -7.5 0 -7.5 
C -1.989023 -7.5 -3.896849 -6.709753 -5.303301 -5.303301 
C -6.709753 -3.896849 -7.5 -1.989023 -7.5 0 
C -7.5 1.989023 -6.709753 3.896849 -5.303301 5.303301 
C -3.896849 6.709753 -1.989023 7.5 0 7.5 
z
" id="mca8d939b8a" style="stroke:#333333;"/>
     </defs>
     <g>
      <use style="fill:#87ceeb;stroke:#333333;" x="28.1" xlink:href="#mca8d939b8a" y="111.492656"/>
     </g>
    </g>
    <g id="text_21">
     <!-- Contestant -->
     <g transform="translate(47.9 115.342656)scale(0.11 -0.11)">
      <use xlink:href="#DejaVuSans-43"/>
      <use x="69.824219" xlink:href="#DejaVuSans-6f"/>
      <use x="131.005859" xlink:href="#DejaVuSans-6e"/>
      <use x="194.384766" xlink:href="#DejaVuSans-74"/>
      <use x="233.59375" xlink:href="#DejaVuSans-65"/>
      <use x="295.117188" xlink:href="#DejaVuSans-73"/>
      <use x="347.216797" xlink:href="#DejaVuSans-74"/>
      <use x="386.425781" xlink:href="#DejaVuSans-61"/>
      <use x="447.705078" xlink:href="#DejaVuSans-6e"/>
      <use x="511.083984" xlink:href="#DejaVuSans-74"/>
     </g>
    </g>
    <g id="line2d_7">
     <path d="M 17.1 127.638594 
L 39.1 127.638594 
" style="fill:none;stroke:#0000ff;stroke-linecap:square;stroke-opacity:0.6;stroke-width:10;"/>
    </g>
    <g id="line2d_8"/>
    <g id="text_22">
     <!-- Strong alliance (11+ votes) -->
     <g transform="translate(47.9 131.488594)scale(0.11 -0.11)">
      <defs>
       <path d="M 1984 4856 
Q 1566 4138 1362 3434 
Q 1159 2731 1159 2009 
Q 1159 1288 1364 580 
Q 1569 -128 1984 -844 
L 1484 -844 
Q 1016 -109 783 600 
Q 550 1309 550 2009 
Q 550 2706 781 3412 
Q 1013 4119 1484 4856 
L 1984 4856 
z
" id="DejaVuSans-28" transform="scale(0.015625)"/>
       <path d="M 2944 4013 
L 2944 2272 
L 4684 2272 
L 4684 1741 
L 2944 1741 
L 2944 0 
L 2419 0 
L 2419 1741 
L 678 1741 
L 678 2272 
L 2419 2272 
L 2419 4013 
L 2944 4013 
z
" id="DejaVuSans-2b" transform="scale(0.015625)"/>
       <path d="M 191 3500 
L 800 3500 
L 1894 563 
L 2988 3500 
L 3597 3500 
L 2284 0 
L 1503 0 
L 191 3500 
z
" id="DejaVuSans-76" transform="scale(0.015625)"/>
       <path d="M 513 4856 
L 1013 4856 
Q 1481 4119 1714 3412 
Q 1947 2706 1947 2009 
Q 1947 1309 1714 600 
Q 1481 -109 1013 -844 
L 513 -844 
Q 928 -128 1133 580 
Q 1338 1288 1338 2009 
Q 1338 2731 1133 3434 
Q 928 4138 513 4856 
z
" id="DejaVuSans-29" transform="scale(0.015625)"/>
      </defs>
      <use xlink:href="#DejaVuSans-53"/>
      <use x="63.476562" xlink:href="#DejaVuSans-74"/>
      <use x="102.685547" xlink:href="#DejaVuSans-72"/>
      <use x="141.548828" xlink:href="#DejaVuSans-6f"/>
      <use x="202.730469" xlink:href="#DejaVuSans-6e"/>
      <use x="266.109375" xlink:href="#DejaVuSans-67"/>
      <use x="329.585938" xlink:href="#DejaVuSans-20"/>
      <use x="361.373047" xlink:href="#DejaVuSans-61"/>
      <use x="422.652344" xlink:href="#DejaVuSans-6c"/>
      <use x="450.435547" xlink:href="#DejaVuSans-6c"/>
      <use x="478.21875" xlink:href="#DejaVuSans-69"/>
      <use x="506.001953" xlink:href="#DejaVuSans-61"/>
      <use x="567.28125" xlink:href="#DejaVuSans-6e"/>
      <use x="630.660156" xlink:href="#DejaVuSans-63"/>
      <use x="685.640625" xlink:href="#DejaVuSans-65"/>
      <use x="747.164062" xlink:href="#DejaVuSans-20"/>
      <use x="778.951172" xlink:href="#DejaVuSans-28"/>
      <use x="817.964844" xlink:href="#DejaVuSans-31"/>
      <use x="881.587891" xlink:href="#DejaVuSans-31"/>
      <use x="945.210938" xlink:href="#DejaVuSans-2b"/>
      <use x="1029" xlink:href="#DejaVuSans-20"/>
      <use x="1060.787109" xlink:href="#DejaVuSans-76"/>
      <use x="1119.966797" xlink:href="#DejaVuSans-6f"/>
      <use x="1181.148438" xlink:href="#DejaVuSans-74"/>
      <use x="1220.357422" xlink:href="#DejaVuSans-65"/>
      <use x="1281.880859" xlink:href="#DejaVuSans-73"/>
      <use x="1333.980469" xlink:href="#DejaVuSans-29"/>
     </g>
    </g>
    <g id="line2d_9">
     <path d="M 17.1 143.784531 
L 39.1 143.784531 
" style="fill:none;stroke:#0000ff;stroke-linecap:square;stroke-opacity:0.6;stroke-width:5;"/>
    </g>
    <g id="line2d_10"/>
    <g id="text_23">
     <!-- Moderate alliance (6-10 votes) -->
     <g transform="translate(47.9 147.634531)scale(0.11 -0.11)">
      <defs>
       <path d="M 628 4666 
L 1569 4666 
L 2759 1491 
L 3956 4666 
L 4897 4666 
L 4897 0 
L 4281 0 
L 4281 4097 
L 3078 897 
L 2444 897 
L 1241 4097 
L 1241 0 
L 628 0 
L 628 4666 
z
" id="DejaVuSans-4d" transform="scale(0.015625)"/>
       <path d="M 313 2009 
L 1997 2009 
L 1997 1497 
L 313 1497 
L 313 2009 
z
" id="DejaVuSans-2d" transform="scale(0.015625)"/>
       <path d="M 2034 4250 
Q 1547 4250 1301 3770 
Q 1056 3291 1056 2328 
Q 1056 1369 1301 889 
Q 1547 409 2034 409 
Q 2525 409 2770 889 
Q 3016 1369 3016 2328 
Q 3016 3291 2770 3770 
Q 2525 4250 2034 4250 
z
M 2034 4750 
Q 2819 4750 3233 4129 
Q 3647 3509 3647 2328 
Q 3647 1150 3233 529 
Q 2819 -91 2034 -91 
Q 1250 -91 836 529 
Q 422 1150 422 2328 
Q 422 3509 836 4129 
Q 1250 4750 2034 4750 
z
" id="DejaVuSans-30" transform="scale(0.015625)"/>
      </defs>
      <use xlink:href="#DejaVuSans-4d"/>
      <use x="86.279297" xlink:href="#DejaVuSans-6f"/>
      <use x="147.460938" xlink:href="#DejaVuSans-64"/>
      <use x="210.9375" xlink:href="#DejaVuSans-65"/>
      <use x="272.460938" xlink:href="#DejaVuSans-72"/>
      <use x="313.574219" xlink:href="#DejaVuSans-61"/>
      <use x="374.853516" xlink:href="#DejaVuSans-74"/>
      <use x="414.0625" xlink:href="#DejaVuSans-65"/>
      <use x="475.585938" xlink:href="#DejaVuSans-20"/>
      <use x="507.373047" xlink:href="#DejaVuSans-61"/>
      <use x="568.652344" xlink:href="#DejaVuSans-6c"/>
      <use x="596.435547" xlink:href="#DejaVuSans-6c"/>
      <use x="624.21875" xlink:href="#DejaVuSans-69"/>
      <use x="652.001953" xlink:href="#DejaVuSans-61"/>
      <use x="713.28125" xlink:href="#DejaVuSans-6e"/>
      <use x="776.660156" xlink:href="#DejaVuSans-63"/>
      <use x="831.640625" xlink:href="#DejaVuSans-65"/>
      <use x="893.164062" xlink:href="#DejaVuSans-20"/>
      <use x="924.951172" xlink:href="#DejaVuSans-28"/>
      <use x="963.964844" xlink:href="#DejaVuSans-36"/>
      <use x="1027.587891" xlink:href="#DejaVuSans-2d"/>
      <use x="1063.671875" xlink:href="#DejaVuSans-31"/>
      <use x="1127.294922" xlink:href="#DejaVuSans-30"/>
      <use x="1190.917969" xlink:href="#DejaVuSans-20"/>
      <use x="1222.705078" xlink:href="#DejaVuSans-76"/>
      <use x="1281.884766" xlink:href="#DejaVuSans-6f"/>
      <use x="1343.066406" xlink:href="#DejaVuSans-74"/>
      <use x="1382.275391" xlink:href="#DejaVuSans-65"/>
      <use x="1443.798828" xlink:href="#DejaVuSans-73"/>
      <use x="1495.898438" xlink:href="#DejaVuSans-29"/>
     </g>
    </g>
    <g id="line2d_11">
     <path d="M 17.1 159.930469 
L 39.1 159.930469 
" style="fill:none;stroke:#0000ff;stroke-linecap:square;stroke-opacity:0.6;stroke-width:2;"/>
    </g>
    <g id="line2d_12"/>
    <g id="text_24">
     <!-- Weak alliance (2-5 votes) -->
     <g transform="translate(47.9 163.780469)scale(0.11 -0.11)">
      <defs>
       <path d="M 581 4863 
L 1159 4863 
L 1159 1991 
L 2875 3500 
L 3609 3500 
L 1753 1863 
L 3688 0 
L 2938 0 
L 1159 1709 
L 1159 0 
L 581 0 
L 581 4863 
z
" id="DejaVuSans-6b" transform="scale(0.015625)"/>
       <path d="M 1228 531 
L 3431 531 
L 3431 0 
L 469 0 
L 469 531 
Q 828 903 1448 1529 
Q 2069 2156 2228 2338 
Q 2531 2678 2651 2914 
Q 2772 3150 2772 3378 
Q 2772 3750 2511 3984 
Q 2250 4219 1831 4219 
Q 1534 4219 1204 4116 
Q 875 4013 500 3803 
L 500 4441 
Q 881 4594 1212 4672 
Q 1544 4750 1819 4750 
Q 2544 4750 2975 4387 
Q 3406 4025 3406 3419 
Q 3406 3131 3298 2873 
Q 3191 2616 2906 2266 
Q 2828 2175 2409 1742 
Q 1991 1309 1228 531 
z
" id="DejaVuSans-32" transform="scale(0.015625)"/>
      </defs>
      <use xlink:href="#DejaVuSans-57"/>
      <use x="93.001953" xlink:href="#DejaVuSans-65"/>
      <use x="154.525391" xlink:href="#DejaVuSans-61"/>
      <use x="215.804688" xlink:href="#DejaVuSans-6b"/>
      <use x="273.714844" xlink:href="#DejaVuSans-20"/>
      <use x="305.501953" xlink:href="#DejaVuSans-61"/>
      <use x="366.78125" xlink:href="#DejaVuSans-6c"/>
      <use x="394.564453" xlink:href="#DejaVuSans-6c"/>
      <use x="422.347656" xlink:href="#DejaVuSans-69"/>
      <use x="450.130859" xlink:href="#DejaVuSans-61"/>
      <use x="511.410156" xlink:href="#DejaVuSans-6e"/>
      <use x="574.789062" xlink:href="#DejaVuSans-63"/>
      <use x="629.769531" xlink:href="#DejaVuSans-65"/>
      <use x="691.292969" xlink:href="#DejaVuSans-20"/>
      <use x="723.080078" xlink:href="#DejaVuSans-28"/>
      <use x="762.09375" xlink:href="#DejaVuSans-32"/>
      <use x="825.716797" xlink:href="#DejaVuSans-2d"/>
      <use x="861.800781" xlink:href="#DejaVuSans-35"/>
      <use x="925.423828" xlink:href="#DejaVuSans-20"/>
      <use x="957.210938" xlink:href="#DejaVuSans-76"/>
      <use x="1016.390625" xlink:href="#DejaVuSans-6f"/>
      <use x="1077.572266" xlink:href="#DejaVuSans-74"/>
      <use x="1116.78125" xlink:href="#DejaVuSans-65"/>
      <use x="1178.304688" xlink:href="#DejaVuSans-73"/>
      <use x="1230.404297" xlink:href="#DejaVuSans-29"/>
     </g>
    </g>
   </g>
  </g>
 </g>
 <defs>
  <clipPath id="p8b7b178fbe">
   <rect height="747.088" width="1130.4" x="7.2" y="64.7925"/>
  </clipPath>
 </defs>
</svg>
